<?xml version="1.0" encoding="UTF-8"?>
<svg id="Layer_1" data-name="Layer 1" xmlns="http://www.w3.org/2000/svg" viewBox="0 0 2000 445.66">
  <defs>
    <style>
      .cls-1 {
        fill: #a5ce3a;
      }

      .cls-2 {
        fill: none;
        stroke: #d4e59e;
        stroke-width: 2px;
      }
    </style>
  </defs>
  <path class="cls-2" d="M932.94,302.34l-4.81,6.53c-.33.46-.23,1.1.23,1.44.18.13.39.2.6.2l9.07.07" vector-effect="non-scaling-stroke"/>
  <path d="M1121.41,141.78c.16.27.51.36.78.2.08-.05.15-.12.2-.2l62.34-102.83c.33-.54.82-.82,1.46-.82h47.43c.11,0,.19.09.19.2,0,.04-.01.07-.03.1l-89.17,147.12c-.71,1.16-1.08,2.5-1.08,3.87v146.29c0,.57-.28.85-.85.85h-42.59c-.6,0-.91-.3-.91-.91-.07-41.74-.05-83.4.05-124.98.04-11.18-.31-18.68-1.03-22.5-.43-2.25-2.2-5.96-5.32-11.13-33.01-54.62-60.68-100.59-83.01-137.91-.4-.67-.21-1.01.59-1.01h46.51c.86,0,1.52.37,1.97,1.1l62.48,102.55Z"/>
  <path d="M370.84,308.9c-.75-1.17-1.12-1.06-1.12.32v90.02c0,.57-.28.85-.85.85h-35.1c-.52,0-.94-.42-.94-.94v-57.99c0-.39-.32-.71-.71-.71h-30.26c-.49,0-.83-.22-1.03-.67l-30.29-66.65c-.13-.28-.42-.46-.73-.46h-114.03c-.59,0-1.01.27-1.24.8l-30.02,66.6c-.11.24-.33.39-.55.39h-36.45c-.51,0-.92-.42-.91-.93,0-.12.03-.25.08-.36L211.76,61.64c.43-.95.85-.95,1.28,0l118.64,261.14c.78,1.74,1.17,1.65,1.17-.27v-154.99c0-.72.37-1.08,1.1-1.08h34.41c.75,0,1.12.37,1.12,1.1v32.47c0,1.09.31,1.18.94.28,19.66-28.07,44.98-42.62,79.89-37.83,13.16,1.8,25.35,7.55,36.57,17.27,23.22,20.09,34.51,45.37,33.88,75.86-.64,29.89-12.32,54.45-35.05,73.68-37.58,31.82-89.44,19.52-114.86-20.37ZM168.87,241.33c-.14.29-.01.64.28.78.08.04.16.06.25.06l86.15-.16c.32,0,.58-.27.58-.59,0-.08-.02-.15-.05-.22l-43.24-95.49c-.13-.29-.48-.42-.78-.29-.13.06-.23.16-.29.29l-42.91,95.63ZM482.09,254.3c0-32.53-26.37-58.9-58.9-58.9s-58.9,26.37-58.9,58.9h0c0,32.53,26.37,58.9,58.9,58.9h0c32.53,0,58.9-26.37,58.9-58.9Z"/>
  <rect x="727.65" y="65.37" width="37.16" height="276.79" rx=".44" ry=".44"/>
  <path d="M1406.52,277.01c-.31-1.24-.75-1.3-1.33-.16-8.4,16.46-19.97,30.59-34.71,42.41-13.83,11.08-28.68,18.07-44.56,20.96-27.75,5.04-53.47.72-77.16-12.95-30.22-17.44-53.38-48.52-57.48-84.24-3.11-27.06,3.52-51.62,19.89-73.7,20.71-27.95,50.86-47.13,86.67-48.75,44.01-1.99,82.09,21.81,104.43,58.82.67,1.12,1.01,1.03,1.01-.28v-52.31c0-.33.27-.6.6-.6h42.57c.77,0,1.15.39,1.15,1.17.04,33.27.03,72.86-.02,118.79-.05,37.48,19.7,57.83,58.15,52.51,16.84-2.32,29.79-16.7,33.89-32.92,1.72-6.81,2.57-14.14,2.57-21.51.04-43.38.03-82.51-.02-117.4,0-.35.29-.64.64-.64h42.39c.4,0,.73.33.73.73.07,47.92.08,85.82.02,113.68-.04,15.78-.95,27.41-2.73,34.89-6.18,25.77-21.74,45.15-46.71,58.15-4.19,2.18-10.85,4.32-19.98,6.44-9.17,2.12-20.54,2.6-34.11,1.46-37.37-3.14-67.11-28.43-75.93-64.54ZM1372.8,227.02c-2.26-37.02-35.18-65.12-73.51-62.78h0c-38.34,2.34-67.58,34.25-65.31,71.27,2.26,37.02,35.18,65.12,73.51,62.78,38.34-2.34,67.58-34.25,65.31-71.27Z"/>
  <path d="M1697.29,227.95c0,1.41.46,1.58,1.38.51,6.99-8.02,16.86-17.64,26.95-20.64,20.36-6.05,36.42-1.06,48.2,14.96,5.19,7.05,7.81,15.31,7.84,24.79.17,39.09.2,68.47.09,88.14-.01.57-.3.85-.87.85h-25.23c-.38,0-.69-.3-.69-.67h0c.05-39.81.03-67.78-.05-83.92-.04-5.45-2.03-10.78-6-15.99-4.12-5.42-10.1-7.93-17.96-7.52-15.72.82-28.16,11.89-32.28,26.69-.92,3.34-1.38,8.93-1.37,16.77.05,27.74.02,48.99-.07,63.74,0,.62-.31.92-.92.92h-24.67c-.66,0-.99-.34-.99-1.01v-198.5c0-.86.71-1.56,1.58-1.56h24.42c.35,0,.64.29.64.66v91.78Z"/>
  <path d="M566.56,199.59c0,2.02.55,2.19,1.65.5,15.54-23.83,39.71-39.43,68.85-38.65,22.06.59,41.11,9.85,57.14,27.77,18.26,20.41,26,46.15,23.73,73.32-2.77,33.15-21.72,62.16-50.79,77.33-13.02,6.83-31.14,9.3-46.35,6.03-22.35-4.79-39.81-17.13-52.38-37.02-.86-1.38-1.3-1.25-1.3.39v89.99c0,.57-.28.85-.85.85h-35.06c-.64,0-.96-.32-.96-.96v-231.82c0-.6.3-.91.9-.91h34.41c.67,0,1.01.34,1.01,1.01v32.15ZM679.59,254.3c0-32.53-26.37-58.9-58.9-58.9h0c-32.53,0-58.9,26.37-58.9,58.9h0c0,32.53,26.37,58.9,58.9,58.9h0c32.53,0,58.9-26.37,58.9-58.9h0Z"/>
  <path d="M932.94,302.34l-4.81,6.53c-.33.46-.23,1.1.23,1.44.18.13.39.2.6.2l9.07.07c-17,20.75-38.86,32.73-65.59,35.93-22.94,2.77-45.91-1.3-64.88-14.14-21.54-14.59-35.47-36.11-39.66-62.29-6.16-38.36,9.56-72.9,41.83-94.56,13.08-8.79,28.37-13.46,45.85-14,26.52-.83,49.2,8.41,68.03,27.7,18.9,19.36,27.17,44.68,26.64,71.69,0,.34-.28.6-.62.6h-148.44c-.4,0-.72.33-.72.72,0,.04,0,.08.01.11,4.19,25.81,18.79,42.23,43.81,49.24,24.91,6.97,51.92-2.56,68.02-23,.5-.63,1.4-.75,2.04-.27l18.58,14.02ZM857.75,232.05c32.4.01,50.11-.01,53.11-.07.45-.01.59-.22.41-.64-9.46-22.16-28.87-35.97-53.52-35.97s-44.06,13.79-53.54,35.97c-.18.4-.04.61.41.62,3.02.06,20.73.09,53.13.09Z"/>
  <path class="cls-1" d="M938.03,310.57l-9.07-.07c-.57,0-1.03-.46-1.03-1.03,0-.22.07-.43.2-.6l4.81-6.53c.21.09.43.14.66.12.24-.01.46-.12.6-.3l105.09-128.49c.96-1.17,1.44-1,1.44.51v115.84c0,.35.29.64.64.64h14.52c.65,0,.98.33.98.98v17.55c0,.8-.4,1.21-1.21,1.21h-13.88c-.7,0-1.05.35-1.05,1.05v30.1c0,.69-.34,1.03-1.03,1.03h-18.54c-.48,0-.87-.4-.87-.89v-30.54c0-.4-.33-.73-.75-.73h0l-81.5.16ZM1019.69,290.66c.32,0,.59-.26.59-.59h0v-63.74c0-.32-.25-.59-.57-.6-.18,0-.36.08-.47.23l-50.68,63.74c-.21.25-.17.62.08.82.1.08.23.13.36.13h50.7Z"/>
  <path d="M1858.04,314.28c20.05,0,28.69-14.28,28.71-32.54.02-17.44.03-41.48.02-72.13,0-.36.3-.66.67-.66h25.18c.4,0,.73.33.73.73h0c.05,39.49.04,64.96-.02,76.43-.16,31.59-23.69,54.05-55.29,54.05s-55.13-22.45-55.29-54.03c-.07-11.46-.09-36.94-.05-76.43,0-.4.33-.73.73-.73h25.18c.37,0,.67.29.67.66,0,30.65.02,54.7.05,72.13.02,18.26,8.68,32.53,28.71,32.53Z"/>
  <circle cx="1631.03" cy="318.48" r="20.76"/>
</svg>