<?xml version="1.0" encoding="UTF-8"?>
<svg id="Layer_1" data-name="Layer 1" xmlns="http://www.w3.org/2000/svg" viewBox="0 0 1794.54 613.12">
  <defs>
    <style>
      .cls-1 {
        fill: #fff;
      }

      .cls-2 {
        fill: #273b8c;
      }

      .cls-3 {
        fill: none;
        stroke: #9099c7;
        stroke-width: 2px;
      }
    </style>
  </defs>
  <g>
    <path class="cls-3" d="M42.54,310.73v53.82c0,21.88,3.78,43.06,11.33,63.52,4.29,11.6,9.74,22.52,16.36,32.77,17.53,27.09,40.7,48.17,69.5,63.23,25.51,13.34,52.86,21.47,82.04,24.41,7.84.78,20.04,1.19,36.62,1.21,36,.05,242.54.07,619.62.07s583.6-.02,619.6-.07c16.58-.02,28.78-.43,36.62-1.21,29.18-2.93,56.53-11.07,82.04-24.41,28.8-15.06,51.97-36.14,69.5-63.23,6.61-10.24,12.07-21.17,16.36-32.77,7.55-20.46,11.33-41.64,11.33-63.52.01-24.34.02-42.28.02-53.82s0-29.48-.02-53.82c0-21.88-3.78-43.06-11.33-63.52-4.29-11.6-9.74-22.52-16.36-32.77-17.53-27.09-40.7-48.17-69.5-63.23-25.51-13.34-52.86-21.47-82.04-24.41-7.84-.78-20.04-1.19-36.62-1.21-36-.05-242.53-.07-619.6-.06-377.08,0-583.61.02-619.62.07-16.58.02-28.78.43-36.62,1.21-29.18,2.93-56.53,11.07-82.04,24.41-28.8,15.06-51.97,36.14-69.5,63.23-6.61,10.24-12.07,21.17-16.36,32.77-7.55,20.46-11.33,41.64-11.33,63.52v53.8" vector-effect="non-scaling-stroke"/>
    <path class="cls-3" d="M1749.28,107.3c0-19.92-16.15-36.07-36.07-36.07-19.92,0-36.07,16.15-36.07,36.07s16.15,36.07,36.07,36.07c19.92,0,36.07-16.15,36.07-36.07" vector-effect="non-scaling-stroke"/>
    <path class="cls-3" d="M1143.42,171.4c0-29.2-23.67-52.87-52.87-52.87h0c-29.2,0-52.87,23.67-52.87,52.87h0c0,29.2,23.67,52.87,52.87,52.87h0c29.2,0,52.87-23.67,52.87-52.87h0" vector-effect="non-scaling-stroke"/>
    <path class="cls-3" d="M1015.23,136.05c0-.45-.36-.81-.81-.81h-93.19c-.45,0-.81.36-.81.81v309.13c0,.45.36.81.81.81h93.19c.45,0,.81-.36.81-.81h0V136.05" vector-effect="non-scaling-stroke"/>
    <path class="cls-3" d="M408.46,295.62c14.56-2.27,26.14-9.19,34.73-20.74,11.63-15.61,13.94-34.25,11.24-53.16-3.18-22.13-14.6-38.65-34.25-49.57-9.57-5.33-22.04-9.24-37.41-11.74-13.5-2.18-26.61-2.99-42.32-3.01-27.02-.01-66.48-.03-118.4-.06-.35,0-.53.18-.53.55v287.31c0,.43.34.77.77.77,91.14.02,140.78,0,148.94-.07,18.84-.16,36.61-4,53.31-11.53,16.01-7.24,27.65-17.13,34.9-29.69,9.44-16.33,11.88-34.64,7.33-54.92-2.95-13.2-9.61-24.22-19.99-33.06-7.43-6.34-16-11.26-25.69-14.74-6.97-2.51-11.23-4.04-12.78-4.6-2.22-.79-2.17-1.38.17-1.74" vector-effect="non-scaling-stroke"/>
    <path class="cls-3" d="M1279.91,446.01c.34,0,.62-.28.62-.62v-127.9c0-.34.28-.62.62-.62h29.74c.34,0,.62-.28.62-.62h0v-71.77c0-.34-.28-.62-.62-.62h-29.76c-.34,0-.62-.28-.62-.62v-64.9c0-.34-.28-.62-.62-.62h-94.33c-.34,0-.62.28-.62.62v64.9c0,.34-.28.62-.62.62h-26.19c-.34,0-.62.28-.62.62v71.79c0,.34.28.62.62.62h26.19c.34,0,.62.28.62.62h0v127.88c0,.34.28.62.62.62h94.35" vector-effect="non-scaling-stroke"/>
    <path class="cls-3" d="M577.99,359.4h143.86c.53,0,.81-.26.84-.79,1.7-21.78-2.34-41.6-12.12-59.45-5.83-10.65-13.41-20.04-22.74-28.17-18.37-16-40.35-25.81-65.94-29.41-17.26-2.42-33.59-2.22-48.98.61-24.22,4.44-47.59,16.45-63.98,34.8-15.84,17.74-24.54,39.14-26.08,64.2-1.74,28.35,6.34,56.09,26.7,75.82,9.6,9.32,20.54,16.58,32.84,21.78,13.39,5.67,27.37,9.29,41.94,10.86,32.4,3.48,66.89-1.54,94.38-17.33,18.58-10.68,31.47-26.47,38.65-47.37.21-.61-.11-1.28-.72-1.49-.13-.04-.26-.07-.4-.06h-89.72c-.64,0-1.04.3-1.21.9-1.87,6.28-4.79,10.55-8.77,12.8-6.42,3.64-13.35,4.57-20.79,2.79-18.34-4.38-19.66-24.17-18.94-39.37.04-.75.43-1.12,1.17-1.12" vector-effect="non-scaling-stroke"/>
    <path class="cls-3" d="M834.93,278.46v-33.28c0-.88-.44-1.32-1.32-1.32h-92.05c-.39,0-.59.2-.59.59v200.88c0,.45.23.68.68.68h93.41c.41,0,.73-.33.73-.73-.02-15.05-.03-38.78-.02-71.2,0-9.47.57-16.38,1.71-20.72,3.94-15.02,11.02-27.34,25.34-33.59,4.73-2.07,11.65-3.07,20.76-3.01,7.98.05,15.05.1,21.2.15.51.01.92-.4.94-.92,0,0,0-.01,0-.02v-71.5c0-.36-.3-.66-.66-.66h0c-8.45-.02-16.99.73-25.62,2.27-20.28,3.64-34.68,14.54-43.2,32.68-.87,1.86-1.3,1.76-1.3-.29" vector-effect="non-scaling-stroke"/>
    <path class="cls-3" d="M1139.02,244.52c0-.37-.3-.68-.68-.68h-93.85c-.37,0-.68.3-.68.68v200.79c0,.37.3.68.68.68h93.85c.37,0,.68-.3.68-.68h0v-200.79" vector-effect="non-scaling-stroke"/>
    <path class="cls-3" d="M1332.04,316.27c0,.33.27.61.61.61h70.67c.33,0,.61.26.62.59,0,.11-.03.23-.09.33l-77,127.28c-.17.29-.08.66.21.83.1.06.21.09.33.09h208.81c.33,0,.61-.27.61-.61v-71.13c0-.33-.27-.61-.61-.61h-75.93c-.33,0-.6-.28-.6-.61,0-.11.03-.21.09-.31l79.62-127.55c.17-.29.08-.66-.21-.83-.09-.06-.2-.09-.31-.09h-206.2c-.33,0-.61.27-.61.61h0v71.41" vector-effect="non-scaling-stroke"/>
    <path class="cls-3" d="M1713.67,137.16c16.06-.25,28.87-13.85,28.61-30.36-.26-16.52-13.49-29.7-29.55-29.45-16.06.25-28.87,13.85-28.61,30.36.26,16.52,13.49,29.7,29.55,29.45" vector-effect="non-scaling-stroke"/>
    <path class="cls-3" d="M1706.93,110.16h4.71c.64,0,1.13.26,1.49.79l10.27,15.9c.55.84,1.33,1.27,2.35,1.27h3.19c1.38,0,1.7-.58.95-1.74l-10.01-15.48c-.3-.47-.17-1.09.3-1.39.11-.07.24-.12.38-.15,5.57-.89,8.61-3.94,9.1-9.15.95-10.34-5.7-13.62-14.89-13.7-7.11-.07-11.86-.06-14.25.04-.56.02-1.01.47-1.01,1.03v39.06c0,.86.7,1.56,1.56,1.56h3.52c.92,0,1.38-.46,1.38-1.39v-15.68c0-.53.44-.95.97-.95h0" vector-effect="non-scaling-stroke"/>
    <path class="cls-3" d="M1705.99,92.61v11.48c0,.36.3.66.66.66h9.54c3.95,0,7.15-2.63,7.15-5.87h0v-1.06c0-3.24-3.2-5.87-7.15-5.87h-9.54c-.36,0-.66.3-.66.66" vector-effect="non-scaling-stroke"/>
    <path class="cls-3" d="M347.27,224.25c-8.36-1.37-18.75-1.72-31.17-1.06-.67.02-1.01.37-1.01,1.05v45.48c0,.66.34,1.02,1.01,1.08,10.76.81,20.48.25,29.16-1.67,4.79-1.06,8.58-2.88,11.35-5.45,7.54-6.97,8.69-19.55,4.99-28.35-2.53-6.01-8.23-10.09-14.32-11.08" vector-effect="non-scaling-stroke"/>
    <path class="cls-3" d="M315.18,327.75l-.11,53.03c0,.35.29.64.64.64l27.1.06c18,.04,32.61-10.85,32.64-24.32,0,0,0,0,0-.01v-5.54c.02-13.47-14.54-24.41-32.53-24.44l-27.1-.06c-.35,0-.64.29-.64.64" vector-effect="non-scaling-stroke"/>
    <path class="cls-3" d="M576.69,322.39l51.86-.07c.22,0,.4-.18.4-.4,0,0,0-.01,0-.02l-.02-3.69c-.03-15.89-11.6-28.74-25.84-28.72h-1.1c-14.24.03-25.76,12.93-25.73,28.82h0s.02,3.69.02,3.69c0,.22.19.39.4.39" vector-effect="non-scaling-stroke"/>
  </g>
  <path class="cls-2" d="M878.01,71.72c377.06-.01,583.6,0,619.6.06,16.58.02,28.78.43,36.62,1.21,29.18,2.93,56.53,11.07,82.04,24.41,28.8,15.06,51.97,36.14,69.5,63.23,6.61,10.24,12.07,21.17,16.36,32.77,7.55,20.46,11.33,41.64,11.33,63.52.01,24.34.02,42.28.02,53.82s0,29.48-.02,53.82c0,21.88-3.78,43.06-11.33,63.52-4.29,11.6-9.74,22.52-16.36,32.77-17.53,27.09-40.7,48.17-69.5,63.23-25.51,13.34-52.86,21.47-82.04,24.41-7.84.78-20.04,1.19-36.62,1.21-36,.05-242.53.07-619.6.07s-583.61-.02-619.62-.07c-16.58-.02-28.78-.43-36.62-1.21-29.18-2.93-56.53-11.07-82.04-24.41-28.8-15.06-51.97-36.14-69.5-63.23-6.61-10.24-12.07-21.17-16.36-32.77-7.55-20.46-11.33-41.64-11.33-63.52v-107.62c0-21.88,3.78-43.06,11.33-63.52,4.29-11.6,9.74-22.52,16.36-32.77,17.53-27.09,40.7-48.17,69.5-63.23,25.51-13.34,52.86-21.47,82.04-24.41,7.84-.78,20.04-1.19,36.62-1.21,36-.05,242.54-.07,619.62-.07ZM1143.42,171.4c0-29.2-23.67-52.87-52.87-52.87h0c-29.2,0-52.87,23.67-52.87,52.87h0c0,29.2,23.67,52.87,52.87,52.87h0c29.2,0,52.87-23.67,52.87-52.87h0ZM1015.23,136.05c0-.45-.36-.81-.81-.81h-93.19c-.45,0-.81.36-.81.81v309.13c0,.45.36.81.81.81h93.19c.45,0,.81-.36.81-.81h0V136.05ZM408.46,295.62c14.56-2.27,26.14-9.19,34.73-20.74,11.63-15.61,13.94-34.25,11.24-53.16-3.18-22.13-14.6-38.65-34.25-49.57-9.57-5.33-22.04-9.24-37.41-11.74-13.5-2.18-26.61-2.99-42.32-3.01-27.02-.01-66.48-.03-118.4-.06-.35,0-.53.18-.53.55v287.31c0,.43.34.77.77.77,91.14.02,140.78,0,148.94-.07,18.84-.16,36.61-4,53.31-11.53,16.01-7.24,27.65-17.13,34.9-29.69,9.44-16.33,11.88-34.64,7.33-54.92-2.95-13.2-9.61-24.22-19.99-33.06-7.43-6.34-16-11.26-25.69-14.74-6.97-2.51-11.23-4.04-12.78-4.6-2.22-.79-2.17-1.38.17-1.74ZM1279.91,446.01c.34,0,.62-.28.62-.62v-127.9c0-.34.28-.62.62-.62h29.74c.34,0,.62-.28.62-.62h0v-71.77c0-.34-.28-.62-.62-.62h-29.76c-.34,0-.62-.28-.62-.62v-64.9c0-.34-.28-.62-.62-.62h-94.33c-.34,0-.62.28-.62.62v64.9c0,.34-.28.62-.62.62h-26.19c-.34,0-.62.28-.62.62v71.79c0,.34.28.62.62.62h26.19c.34,0,.62.28.62.62h0v127.88c0,.34.28.62.62.62h94.35ZM577.99,359.4h143.86c.53,0,.81-.26.84-.79,1.7-21.78-2.34-41.6-12.12-59.45-5.83-10.65-13.41-20.04-22.74-28.17-18.37-16-40.35-25.81-65.94-29.41-17.26-2.42-33.59-2.22-48.98.61-24.22,4.44-47.59,16.45-63.98,34.8-15.84,17.74-24.54,39.14-26.08,64.2-1.74,28.35,6.34,56.09,26.7,75.82,9.6,9.32,20.54,16.58,32.84,21.78,13.39,5.67,27.37,9.29,41.94,10.86,32.4,3.48,66.89-1.54,94.38-17.33,18.58-10.68,31.47-26.47,38.65-47.37.21-.61-.11-1.28-.72-1.49-.13-.04-.26-.07-.4-.06h-89.72c-.64,0-1.04.3-1.21.9-1.87,6.28-4.79,10.55-8.77,12.8-6.42,3.64-13.35,4.57-20.79,2.79-18.34-4.38-19.66-24.17-18.94-39.37.04-.75.43-1.12,1.17-1.12ZM834.93,278.46v-33.28c0-.88-.44-1.32-1.32-1.32h-92.05c-.39,0-.59.2-.59.59v200.88c0,.45.23.68.68.68h93.41c.41,0,.73-.33.73-.73-.02-15.05-.03-38.78-.02-71.2,0-9.47.57-16.38,1.71-20.72,3.94-15.02,11.02-27.34,25.34-33.59,4.73-2.07,11.65-3.07,20.76-3.01,7.98.05,15.05.1,21.2.15.51.01.92-.4.94-.92,0,0,0-.01,0-.02v-71.5c0-.36-.3-.66-.66-.66h0c-8.45-.02-16.99.73-25.62,2.27-20.28,3.64-34.68,14.54-43.2,32.68-.87,1.86-1.3,1.76-1.3-.29ZM1139.02,244.52c0-.37-.3-.68-.68-.68h-93.85c-.37,0-.68.3-.68.68v200.79c0,.37.3.68.68.68h93.85c.37,0,.68-.3.68-.68h0v-200.79ZM1332.04,316.27c0,.33.27.61.61.61h70.67c.33,0,.61.26.62.59,0,.11-.03.23-.09.33l-77,127.28c-.17.29-.08.66.21.83.1.06.21.09.33.09h208.81c.33,0,.61-.27.61-.61v-71.13c0-.33-.27-.61-.61-.61h-75.93c-.33,0-.6-.28-.6-.61,0-.11.03-.21.09-.31l79.62-127.55c.17-.29.08-.66-.21-.83-.09-.06-.2-.09-.31-.09h-206.2c-.33,0-.61.27-.61.61h0v71.41Z"/>
  <path class="cls-2" d="M1749.28,107.3c0,19.92-16.15,36.07-36.07,36.07-19.92,0-36.07-16.15-36.07-36.07s16.15-36.07,36.07-36.07c19.92,0,36.07,16.15,36.07,36.07ZM1713.67,137.16c16.06-.25,28.87-13.85,28.61-30.36-.26-16.52-13.49-29.7-29.55-29.45-16.06.25-28.87,13.85-28.61,30.36.26,16.52,13.49,29.7,29.55,29.45Z"/>
  <path class="cls-1" d="M1713.67,137.16c-16.06.25-29.29-12.93-29.55-29.45-.26-16.52,12.55-30.11,28.61-30.36,16.06-.25,29.29,12.93,29.55,29.45.26,16.52-12.55,30.11-28.61,30.36ZM1706.93,110.16h4.71c.64,0,1.13.26,1.49.79l10.27,15.9c.55.84,1.33,1.27,2.35,1.27h3.19c1.38,0,1.7-.58.95-1.74l-10.01-15.48c-.3-.47-.17-1.09.3-1.39.11-.07.24-.12.38-.15,5.57-.89,8.61-3.94,9.1-9.15.95-10.34-5.7-13.62-14.89-13.7-7.11-.07-11.86-.06-14.25.04-.56.02-1.01.47-1.01,1.03v39.06c0,.86.7,1.56,1.56,1.56h3.52c.92,0,1.38-.46,1.38-1.39v-15.68c0-.53.44-.95.97-.95h0Z"/>
  <path class="cls-2" d="M1705.95,111.11v15.68c0,.93-.46,1.39-1.38,1.39h-3.52c-.86,0-1.56-.7-1.56-1.56v-39.06c0-.55.45-1.01,1.01-1.03,2.38-.1,7.13-.11,14.25-.04,9.19.07,15.84,3.36,14.89,13.7-.49,5.21-3.52,8.26-9.1,9.15-.55.09-.92.61-.82,1.16.02.13.07.26.15.38l10.01,15.48c.75,1.16.43,1.74-.95,1.74h-3.19c-1.01,0-1.8-.42-2.35-1.27l-10.27-15.9c-.35-.53-.85-.79-1.49-.79h-4.71c-.54,0-.97.43-.97.95h0ZM1705.99,92.61v11.48c0,.36.3.66.66.66h9.54c3.95,0,7.15-2.63,7.15-5.87h0v-1.06c0-3.24-3.2-5.87-7.15-5.87h-9.54c-.36,0-.66.3-.66.66Z"/>
  <path class="cls-1" d="M1705.99,92.61c0-.36.3-.66.66-.66h9.54c3.95,0,7.15,2.63,7.15,5.87h0v1.06c0,3.24-3.2,5.87-7.15,5.87h-9.54c-.36,0-.66-.3-.66-.66v-11.48Z"/>
  <circle class="cls-1" cx="1090.55" cy="171.4" r="52.87"/>
  <rect class="cls-1" x="920.42" y="135.24" width="94.8" height="310.74" rx=".44" ry=".44"/>
  <path class="cls-1" d="M408.46,295.62c-2.33.37-2.39.95-.17,1.74,1.55.56,5.81,2.1,12.78,4.6,9.69,3.48,18.26,8.4,25.69,14.74,10.38,8.84,17.04,19.86,19.99,33.06,4.55,20.28,2.1,38.59-7.33,54.92-7.25,12.55-18.88,22.45-34.9,29.69-16.7,7.53-34.47,11.38-53.31,11.53-8.15.07-57.8.1-148.94.07-.43,0-.77-.34-.77-.77V157.91c0-.37.18-.55.53-.55,51.92.02,91.39.04,118.4.06,15.72.02,28.83.83,42.32,3.01,15.37,2.49,27.84,6.41,37.41,11.74,19.66,10.92,31.08,27.44,34.25,49.57,2.7,18.91.39,37.55-11.24,53.16-8.59,11.55-20.17,18.47-34.73,20.74ZM347.27,224.25c-8.36-1.37-18.75-1.72-31.17-1.06-.67.02-1.01.37-1.01,1.05v45.48c0,.66.34,1.02,1.01,1.08,10.76.81,20.48.25,29.16-1.67,4.79-1.06,8.58-2.88,11.35-5.45,7.54-6.97,8.69-19.55,4.99-28.35-2.53-6.01-8.23-10.09-14.32-11.08ZM315.18,327.75l-.11,53.03c0,.35.29.64.64.64l27.1.06c18,.04,32.61-10.85,32.64-24.32,0,0,0,0,0-.01v-5.54c.02-13.47-14.54-24.41-32.53-24.44l-27.1-.06c-.35,0-.64.29-.64.64Z"/>
  <path class="cls-1" d="M1279.91,446.01h-94.35c-.34,0-.62-.28-.62-.62v-127.88c0-.34-.28-.62-.62-.62h-26.19c-.34,0-.62-.28-.62-.62v-71.79c0-.34.28-.62.62-.62h26.19c.34,0,.62-.28.62-.62h0v-64.9c0-.34.28-.62.62-.62h94.33c.34,0,.62.28.62.62h0v64.9c0,.34.28.62.62.62h29.76c.34,0,.62.28.62.62h0v71.77c0,.34-.28.62-.62.62h-29.74c-.34,0-.62.28-.62.62h0v127.9c0,.34-.28.62-.62.62Z"/>
  <path class="cls-2" d="M347.27,224.25c6.09.99,11.79,5.06,14.32,11.08,3.7,8.8,2.55,21.38-4.99,28.35-2.78,2.57-6.56,4.38-11.35,5.45-8.68,1.92-18.4,2.48-29.16,1.67-.67-.06-1.01-.42-1.01-1.08v-45.48c0-.67.34-1.02,1.01-1.05,12.42-.66,22.81-.31,31.17,1.06Z"/>
  <path class="cls-1" d="M576.82,360.52c-.72,15.2.61,34.99,18.94,39.37,7.44,1.78,14.38.86,20.79-2.79,3.97-2.25,6.89-6.52,8.77-12.8.17-.6.57-.9,1.21-.9h89.72c.65,0,1.18.52,1.18,1.16,0,.13-.02.27-.06.4-7.19,20.89-20.07,36.68-38.65,47.37-27.49,15.79-61.98,20.81-94.38,17.33-14.57-1.56-28.55-5.18-41.94-10.86-12.3-5.21-23.25-12.47-32.84-21.78-20.35-19.73-28.44-47.48-26.7-75.82,1.54-25.06,10.23-46.46,26.08-64.2,16.39-18.36,39.76-30.37,63.98-34.8,15.39-2.82,31.72-3.03,48.98-.61,25.59,3.61,47.57,13.41,65.94,29.41,9.33,8.13,16.91,17.52,22.74,28.17,9.78,17.85,13.82,37.66,12.12,59.45-.04.53-.32.79-.84.79h-143.86c-.75,0-1.14.37-1.17,1.12ZM576.69,322.39l51.86-.07c.22,0,.4-.18.4-.4,0,0,0-.01,0-.02l-.02-3.69c-.03-15.89-11.6-28.74-25.84-28.72h-1.1c-14.24.03-25.76,12.93-25.73,28.82h0s.02,3.69.02,3.69c0,.22.19.39.4.39Z"/>
  <path class="cls-1" d="M834.93,278.46c0,2.05.43,2.15,1.3.29,8.52-18.14,22.92-29.03,43.2-32.68,8.63-1.54,17.17-2.3,25.62-2.27.36,0,.66.3.66.66h0v71.5c0,.52-.41.94-.92.94,0,0-.01,0-.02,0-6.15-.05-13.22-.1-21.2-.15-9.11-.06-16.03.94-20.76,3.01-14.32,6.25-21.4,18.58-25.34,33.59-1.14,4.34-1.71,11.25-1.71,20.72-.01,32.42,0,56.15.02,71.2,0,.41-.33.73-.73.73h-93.41c-.45,0-.68-.23-.68-.68v-200.88c0-.39.2-.59.59-.59h92.05c.88,0,1.32.44,1.32,1.32v33.28Z"/>
  <rect class="cls-1" x="1043.81" y="243.84" width="95.21" height="202.15" rx=".37" ry=".37"/>
  <path class="cls-1" d="M1332.04,316.27v-71.41c0-.33.27-.61.61-.61h206.2c.33,0,.6.28.6.61,0,.11-.03.21-.09.31l-79.62,127.55c-.17.29-.08.66.21.83.09.06.2.09.31.09h75.93c.33,0,.61.27.61.61v71.13c0,.33-.27.61-.61.61h-208.81c-.33,0-.61-.26-.62-.59,0-.11.03-.23.09-.33l77-127.28c.17-.29.08-.66-.21-.83-.1-.06-.21-.09-.33-.09h-70.67c-.33,0-.61-.27-.61-.61h0Z"/>
  <path class="cls-2" d="M576.69,322.39c-.22,0-.39-.17-.4-.39l-.02-3.69c-.03-15.89,11.48-28.8,25.72-28.83,0,0,0,0,0,0h1.1c14.24-.03,25.8,12.83,25.84,28.72l.02,3.69c.01.22-.16.41-.38.42,0,0-.01,0-.02,0l-51.86.07Z"/>
  <path class="cls-2" d="M315.18,327.75c0-.35.29-.64.64-.64l27.1.06c17.99.04,32.55,10.98,32.53,24.44v5.54c-.02,13.47-14.63,24.36-32.63,24.33,0,0-.01,0-.02,0l-27.1-.06c-.35,0-.64-.29-.64-.64l.11-53.03Z"/>
</svg>