<?xml version="1.0" encoding="UTF-8" standalone="no"?>
<!DOCTYPE svg PUBLIC "-//W3C//DTD SVG 1.1//EN" "http://www.w3.org/Graphics/SVG/1.1/DTD/svg11.dtd">
<svg xmlns="http://www.w3.org/2000/svg" version="1.1" viewBox="0.00 0.00 250.00 95.00">
<path fill="#4b5c66" d="
  M 20.71 86.60
  C 5.23 76.34 -2.11 58.12 1.05 39.81
  C 5.16 16.02 24.47 0.64 48.28 0.41
  Q 76.93 0.13 88.61 0.33
  Q 89.21 0.34 89.21 0.94
  L 89.21 22.26
  Q 89.21 22.79 88.68 22.79
  Q 80.98 22.82 53.33 22.82
  Q 45.18 22.82 41.59 24.19
  C 24.90 30.52 20.96 53.91 33.30 66.26
  A 0.47 0.47 0.0 0 1 33.36 66.83
  L 21.15 86.50
  A 0.32 0.32 0.0 0 1 20.71 86.60
  Z"
/>
<path fill="#4b5c66" d="
  M 97.56 22.13
  L 97.56 0.59
  A 0.31 0.31 0.0 0 1 97.87 0.28
  L 151.73 0.28
  A 0.31 0.31 0.0 0 1 151.99 0.43
  L 165.48 21.97
  A 0.31 0.31 0.0 0 1 165.22 22.44
  L 97.87 22.44
  A 0.31 0.31 0.0 0 1 97.56 22.13
  Z"
/>
<path fill="#4b5c66" d="
  M 200.07 17.44
  L 186.58 39.17
  A 0.30 0.30 0.0 0 1 186.07 39.17
  L 162.00 0.74
  A 0.30 0.30 0.0 0 1 162.25 0.28
  L 189.35 0.28
  A 0.30 0.30 0.0 0 1 189.61 0.42
  L 200.07 17.12
  A 0.30 0.30 0.0 0 1 200.07 17.44
  Z"
/>
<path fill="#ed6b06" d="
  M 250.00 0.31
  L 250.00 0.83
  L 191.73 94.34
  Q 191.49 94.73 191.03 94.73
  L 162.17 94.73
  Q 161.90 94.73 162.04 94.50
  L 220.17 0.86
  Q 220.46 0.40 221.00 0.40
  L 250.00 0.31
  Z"
/>
<rect fill="#4b5c66" x="115.73" y="30.72" width="26.98" height="64.00" rx="0.38"/>
<path fill="#4b5c66" d="
  M 65.24 58.70
  A 0.29 0.29 0.0 0 0 64.95 58.41
  L 48.78 58.41
  A 0.24 0.24 0.0 0 1 48.57 58.04
  L 59.52 40.41
  Q 59.83 39.90 60.43 39.90
  L 88.68 39.90
  Q 89.20 39.90 89.20 40.43
  L 89.20 80.49
  A 0.73 0.72 -19.5 0 1 88.92 81.06
  C 72.15 94.36 49.07 98.75 28.89 90.88
  A 0.48 0.47 -63.8 0 1 28.66 90.19
  L 40.21 71.59
  Q 40.49 71.14 41.01 71.24
  C 41.76 71.38 42.59 71.86 43.21 72.03
  Q 54.56 75.06 64.80 69.67
  Q 65.24 69.44 65.24 68.95
  L 65.24 58.70
  Z"
/>
<path fill="#4b5c66" d="
  M 211.05 79.03
  L 224.73 56.98
  A 0.34 0.34 0.0 0 1 225.31 56.98
  L 248.63 94.21
  A 0.34 0.34 0.0 0 1 248.35 94.73
  L 220.85 94.73
  A 0.34 0.34 0.0 0 1 220.56 94.57
  L 211.05 79.39
  A 0.34 0.34 0.0 0 1 211.05 79.03
  Z"
/>
</svg>
