<?xml version="1.0" encoding="UTF-8"?>
<svg id="Layer_1" data-name="Layer 1" xmlns="http://www.w3.org/2000/svg" version="1.1" viewBox="0 0 196.15 96.03">
  <defs>
    <style>
      .cls-1 {
        fill: #000;
        stroke-width: 0px;
      }
    </style>
  </defs>
  <path class="cls-1" d="M52.37,32.01c1.02-2.23,2-4.48,2.96-6.77.35-.86.75-1.78.93-2.67,1.13-5.9,6.23-9.77,11.73-12.11,4.29-1.83,8.92-3.14,13.92-3.96,11.23-1.83,22.43-1.88,33.64-.17,7.12,1.09,15,3.15,20.81,7.35,2.43,1.76,4.21,4.02,5.05,6.91.32,1.12.73,2.21,1.22,3.27,1.81,3.92,3.9,8.04,4.85,12.13.75,3.22.26,6.35-2.46,8.47-9.11,7.1-20.51,9.42-31.97,10.35-5.4.43-10.92.94-16.33.63-8.88-.51-17.26-1.11-25.89-3.06-7.11-1.6-14.4-4.54-19.03-9.97-2.07-2.42-.63-7.69.61-10.41h-.03ZM110.6,20.35c6.83.69,13.43,2.29,19.81,4.82.2.08.43.11.65.08,2.41-.31,4.34-1.31,5.8-2.98,2.52-2.88.82-5.59-1.92-7.22-8.58-5.12-18.4-7.43-28.42-7.86-6.33-.27-12.83-.06-19.47.63-6.15.64-12.21,2.02-18.17,4.13-2.44.87-6.65,2.94-7.73,5.46-.93,2.18-.49,4.03,1.34,5.55,1.16.97,2.29,1.65,3.42,2.05.93.33,1.61.41,2.03.22,1.26-.53,2.57-1.02,3.92-1.47,3.39-1.14,6.67-1.98,9.86-2.51,3.42-.58,5.94-.93,7.58-1.06,7.07-.61,14.17-.57,21.3.16h0ZM118.47,23.63c-16.21-3.5-32.17-2.63-47.9,2.63-.35.12-.35.22,0,.32,1.31.34,2.6.63,3.88.88,17.88,3.4,35.59,3.14,53.14-.76.49-.11.5-.25.03-.42-3.09-1.11-6.15-1.99-9.17-2.65ZM98.34,39.52c1.66-1.08.49-4.9-.59-6.19-.31-.37-.86-.43-1.25-.14-1.96,1.49-2.95,4.35-.61,6.2.8.63,1.61.67,2.45.13ZM101.05,39.69c1,.58,3.01-.58,3.34-1.57.62-1.89-.12-4.35-2.26-4.9-.13-.03-.24-.02-.36.03-.7.31-1.15.86-1.34,1.63-.32,1.33-.82,3.96.61,4.8h0ZM92.15,44.65c1.7.73,3.53-.03,3.74-1.96.19-1.72-.85-3.14-2.46-3.81-1.88-.77-3.24,4.92-1.28,5.77h0ZM102.66,43.16c.21,1.43,1.47,2.22,2.9,2.19.64-.02,1.07-.28,1.3-.81.39-.96,1.15-4.53-.63-4.8-1.53-.23-3.78,1.93-3.56,3.43h0ZM97.22,50.7c1.02-.5,2.37-.72,3.39-.18.69.37,1.21.74,2.05.69,1.3-.08,2.05-.83,2.26-2.25.31-2.1-2.17-2.49-2.98-4.18-.47-.98-1.01-2.54-2.18-2.76-2.44-.45-3,1.45-3.59,3.29-.51,1.55-2.58,1.57-2.37,3.74.17,1.73,1.96,2.35,3.42,1.64h0Z"/>
  <path class="cls-1" d="M75.53,74.69c-3.35-2.2-4.83.03-5.16,3.08-.28,2.55-.12,4.92.47,7.1.79,2.9,2.54,2.48,4.79,1.71.46-.16.83-.04,1.1.36l.94,1.34c.28.4.21.73-.2,1-1.81,1.14-3.82,1.46-6.05.97-4.86-1.08-5.93-7.51-5.48-11.69.25-2.31,1-4.21,2.22-5.69,2.24-2.69,6.46-2.64,9.31-1.01.31.18.43.56.27.88-.31.64-.68,1.24-1.11,1.79-.31.39-.67.44-1.08.18h-.02Z"/>
  <path class="cls-1" d="M121.06,71.34c2.65.97,3.95,3.82,4.32,6.48.47,3.3.35,6.74-1.22,9.59-1.87,3.4-6.8,4.26-9.83,1.81-4.08-3.3-4.45-13.35-.32-16.79,2.03-1.69,4.38-2.05,7.05-1.08h0ZM118.37,87.81c1.62,0,2.94-3.21,2.94-7.18h0c0-3.96-1.32-7.18-2.94-7.18s-2.94,3.21-2.94,7.18,1.32,7.18,2.94,7.18h0Z"/>
  <path class="cls-1" d="M89.19,85.66c.51-1.02-.53-2.21-1.39-2.71-2.78-1.63-6.62-3.43-6.34-7.27.2-2.85,2.38-4.79,5.23-4.74,1.22.02,4.33.36,4.47,1.89.07.8,0,1.69-.22,2.66-.04.16-.2.25-.35.21-.06,0-.11-.05-.15-.09-1.01-1.13-2.24-1.6-3.68-1.42-.59.08-1.02.31-1.32.72-1.03,1.44.69,2.75,1.87,3.47,2.88,1.72,7.35,3.94,5.92,8.17-1.57,4.67-9.15,4.86-12.29,2.01-.11-.1-.16-.23-.14-.37.13-1.02.34-2.04.65-3.06.05-.15.2-.23.35-.19.03,0,.06.02.08.04.45.3.9.61,1.36.91,1.61,1.05,4.84,1.99,5.94-.22h0Z"/>
  <path class="cls-1" d="M40.78,88.16c-1.87-.1-2.71-.21-3.12,1.88-.07.34-.37.59-.72.58l-3.41-.15c-.13,0-.23-.11-.23-.23,0-.26,0-.52.06-.77,1.19-5.92,2.39-11.78,3.62-17.59.08-.38.4-.66.79-.69,1.26-.1,2.54-.14,3.82-.11,1.22.04,1.32,1.27,1.49,2.18.95,4.88,1.98,9.83,3.11,14.85.16.7.23,1.43.23,2.17,0,.14-.11.24-.24.24l-3.47.03c-.35,0-.63-.27-.64-.62v-.02c.02-.85-.31-1.68-1.29-1.73h0ZM40.92,84.49c.11-.09.16-.23.14-.37l-.81-4.12c-.04-.21-.24-.35-.46-.31-.17.03-.28.17-.31.32l-.65,4.32c-.03.2.11.4.31.44l1.01.19c.12.02.23,0,.32-.09l.45-.38h0Z"/>
  <path class="cls-1" d="M186.05,90.16c-.16-.79-.25-1.85-1.28-1.96-.97-.1-2.63-.31-3.01.93-.1.31-.18.61-.24.93-.07.32-.36.56-.69.55l-3.19-.12c-.4,0-.56-.21-.48-.61,1.18-5.89,2.28-11.28,3.31-16.18.15-.7.31-1.4.49-2.09.05-.2.22-.36.44-.39,1.4-.18,2.82-.21,4.27-.12.63.04.98.58,1.09,1.14,1.1,5.51,2.23,10.88,3.37,16.1.13.6.21,1.23.23,1.91,0,.14-.1.24-.23.25h0l-3.57.05c-.23,0-.45-.17-.5-.4h0ZM184.9,84.09c.03-.07.03-.15.02-.21l-.76-3.88c-.04-.21-.25-.35-.47-.31-.17.03-.29.17-.31.33l-.63,4.35c-.03.21.12.42.33.45h.02l1.17.12c.18.02.34-.08.41-.24l.22-.59h0Z"/>
  <path class="cls-1" d="M19.08,82.51c.17.08.37,0,.45-.18,0-.02,0-.03.02-.05l2.65-10.16c.14-.52.47-.79,1.02-.82.83-.04,1.74-.04,2.71,0,.6.02.95.33,1.04.92,1.07,6.1,2.02,11.64,2.84,16.65.06.35.08.71.06,1.08,0,.22-.19.42-.42.44-1.2.11-2.28.11-3.25,0-.33-.04-.6-.29-.65-.61l-1.14-6.73c-.05-.27-.3-.46-.58-.41-.05,0-.1.03-.15.05-.16.08-.25.2-.29.38-.57,2.25-1.23,4.56-1.99,6.89-.11.31-.39.52-.71.52h-3.09c-.51,0-.82-.23-.95-.72-.67-2.5-1.29-4.62-1.84-6.34-.31-.98-.64-.99-1.02-.04-.05.13-.11.39-.18.8-.33,1.95-.66,3.82-1,5.58-.08.43-.46.74-.91.73l-3.24-.1c-.14,0-.25-.13-.24-.26h0c.04-.6.11-1.17.2-1.75.88-5.02,1.83-10.39,2.83-16.12.11-.61.47-.93,1.07-.94.89,0,1.73,0,2.53,0,.69,0,1.11.34,1.27,1,.74,3.11,1.55,6.3,2.44,9.56.09.3.25.52.52.63h-.02Z"/>
  <path class="cls-1" d="M54.19,81.86c-.12-.03-.23.05-.26.17v7.49c0,.65-.31.98-.97.98h-2.64c-.42,0-.77-.34-.77-.76,0-5.75,0-11.25-.02-16.53,0-.48.04-.97.14-1.45.04-.2.2-.34.39-.36.75-.08,1.49-.1,2.24-.07.67.03.96.25,1.25.85,1.25,2.51,2.54,5.05,3.86,7.61.18.34.37.52.59.55.28.03.43-.1.43-.38l.02-8.11c0-.23.18-.44.41-.46,1.34-.15,2.55-.13,3.62.06.2.04.36.21.36.43l-.02,17.93c0,.36-.19.56-.54.6-1.18.12-2.87.44-3.52-.84-1.26-2.45-2.56-4.84-3.89-7.17-.16-.27-.38-.45-.67-.51h0Z"/>
  <path class="cls-1" d="M137.06,80.32c.19-.03.33-.2.33-.39l.05-7.97c0-.43.21-.63.64-.63l3.13.04c.35,0,.54.19.54.54.06,5.66.04,11.23.04,16.45,0,.54-.03,1.12-.08,1.74,0,.15-.14.26-.28.27-.88.07-2.8.4-3.41-.46-.49-.7-.94-1.45-1.34-2.25-.93-1.84-1.9-3.62-2.93-5.36-.12-.2-.29-.33-.51-.39-.16-.05-.32.05-.37.2,0,.03,0,.06,0,.09v7.61c0,.28-.2.52-.47.57-1.19.2-2.33.2-3.45.04-.21-.03-.37-.2-.37-.42-.16-5.7-.02-11.64-.11-17.1,0-.4.04-.79.14-1.18.03-.12.11-.2.21-.23.72-.21,1.63-.25,2.73-.1.43.06.73.27.92.64,1.42,2.88,2.76,5.54,4.02,7.98.13.24.31.34.58.3l-.02.02Z"/>
  <path class="cls-1" d="M101.05,83.01c-.09.23-.14.48-.14.73,0,2.2-.02,4.33-.06,6.39,0,.17-.14.31-.31.31l-3.56.06c-.2,0-.38-.17-.38-.37h0c-.08-5.56-.12-11.25-.11-17.09,0-.46.05-.91.14-1.33.05-.22.24-.38.48-.38l3.13.08c.44,0,.65.23.66.67.02,1.97.03,4.03.03,6.18,0,.32.07.61.21.86.1.17.31.22.48.13.06-.04.12-.09.15-.16,1.06-2.33,2.14-4.62,3.22-6.85.2-.4.5-.74.96-.8.98-.11,2-.12,3.06,0,.42.04.55.25.38.64-1.26,2.89-2.48,5.55-3.67,8-.56,1.13.03,1.85.47,2.83.98,2.19,2.04,4.46,3.19,6.8.2.41.07.64-.37.7-1.03.14-2.11.17-3.21.08-.34-.03-.63-.3-.88-.82-.88-1.88-1.73-3.68-2.54-5.39-.22-.47-.49-.92-.79-1.34-.09-.13-.27-.16-.4-.07-.05.03-.08.08-.11.14h-.03Z"/>
  <path class="cls-1" d="M150.74,77.49c.4,1.3.79,1.3,1.16-.02.51-1.78.99-3.52,1.43-5.25.14-.52.46-.8.99-.84.89-.08,1.86-.06,2.91.06.44.05.59.28.43.69-1.17,3.18-2.41,6.45-3.72,9.82-.27.7-.38,1.5-.39,2.24-.04,2.05-.07,4-.08,5.87,0,.23-.2.43-.44.43l-3.38-.02c-.27,0-.49-.22-.49-.49,0-1.95-.02-3.81-.04-5.55,0-.96-.23-2-.67-3.13-1.06-2.74-2.2-5.61-3.39-8.62-.1-.24-.17-.49-.2-.74-.04-.27.15-.53.42-.57h.07l2.98-.05c.47,0,.88.31.99.77.48,2.1.95,3.89,1.41,5.39l.02.02Z"/>
  <path class="cls-1" d="M169.53,83.79c-.11-.18-.29-.29-.5-.32-1.12-.14-2.17-.13-3.14.02-.43.07-.64.31-.65.74l-.08,5.75c0,.27-.22.5-.5.5l-3.37.02c-.27,0-.5-.21-.5-.49h0v-17.93c0-.48.25-.72.73-.72h3.25c.23,0,.42.2.42.43h0l-.02,7.59c0,.32.21.61.53.69,1.07.3,2.16.35,3.27.15.41-.08.71-.44.71-.86l.02-7.35c0-.37.3-.67.67-.67h0l3.01.03c.32,0,.59.26.6.6.03,1.81.14,3.68.11,5.48-.07,3.38-.07,7,0,10.87,0,.62-.08,1.31-.18,1.93-.02.14-.14.23-.27.23l-3.15.02c-.43,0-.79-.35-.79-.79h0c.02-1.91,0-3.78-.08-5.59,0-.12-.04-.22-.11-.33h.02Z"/>
</svg>