<?xml version="1.0" encoding="UTF-8"?>
<svg id="Layer_1" data-name="Layer 1" xmlns="http://www.w3.org/2000/svg" version="1.1" viewBox="0 0 185.58 119.14">
  <defs>
    <style>
      .cls-1 {
        fill: #2ba2dc;
        stroke-width: 0px;
      }
    </style>
  </defs>
  <ellipse class="cls-1" cx="78.42" cy="14.91" rx="9.08" ry="8.93" transform="translate(63.1 93.25) rotate(-89.7)"/>
  <ellipse class="cls-1" cx="106.17" cy="14.91" rx="9.08" ry="8.93" transform="translate(90.88 121.03) rotate(-89.8)"/>
  <path class="cls-1" d="M68.45,37.47c.33,1.98.81,3.74,1.43,5.29,3.03,7.55,8.44,12.91,16.24,16.09,2.38.97,3.55,3.27,3.14,5.76-.38,2.31-2.55,4.21-4.87,4.1-.81-.04-1.91-.33-3.29-.89-4.49-1.79-8.32-4.17-11.49-7.14-9.13-8.54-12.34-20.52-11.28-32.8,0-.06.03-.08.09-.08,2.66,0,5.59-.01,8.8-.04,1.73-.02,3.16.08,4.27.28,2.99.55,5.78,1.8,7.91,3.94.07.07.19.08.26,0,2.33-2.04,5-3.35,8.02-3.91,1.11-.21,2.61-.31,4.51-.3,10.57.03,21.88.03,33.92,0,.08,0,.16.06.16.15.9,10.14-1.22,19.7-7.23,27.74-4.36,5.83-10.66,10.3-17.37,12.79-1.5.55-3.41.17-4.63-.89-1.44-1.26-2.03-2.83-1.76-4.7.15-1.09.73-1.84,1.72-2.25,1.1-.45,2.11-.91,3.03-1.37,6.28-3.16,10.9-7.97,13.88-14.44.86-1.86,1.55-4.08,2.07-6.67.2-1.01.03-1.97-.98-2.44-1.1-.51-2.24.27-2.42,1.4-1.42,8.8-7.29,16.02-15.43,19.6-.58.26-1.17.52-1.75.8-.03.01-.06,0-.07-.02v-20.07c0-.06-.03-.08-.09-.09-1.65,0-3.32,0-5.03.03-.66.01-1.48.2-2.45.58-3.7,1.43-6.65,4.77-8.09,8.42-.14.35-.26.34-.37-.02-1.07-3.46-3.13-6.26-6.29-7.89-1.45-.74-2.92-1.13-4.42-1.14-.11,0-.16.05-.14.16v.02Z"/>
  <path class="cls-1" d="M87.21,85.63l-8.42,3.8s-.1,0-.12-.04l-1.61-3.32s0-.1.04-.12l8.26-4.52s.1,0,.13.04h0l1.77,4.04s0,.1-.05.12h0Z"/>
  <path class="cls-1" d="M152.17,85.75l-8.43,3.79s-.12,0-.14-.05l-1.55-3.31c-.02-.05,0-.11.05-.14l8.21-4.49s.12-.01.15.04h0l1.76,4.01c.02.05,0,.12-.05.14h0Z"/>
  <path class="cls-1" d="M115.99,93.26c.14.1.22.07.22-.11v-7.71c0-.08.04-.12.12-.12h5.18c.09-.01.16.06.16.15v26.08c0,.06-.05.11-.11.11h-4.98c-.08,0-.14-.06-.15-.14l-.04-1.36c0-.27-.11-.31-.3-.12-2.89,2.95-6.74,2.85-10.2,1.07-2.98-1.54-4.58-4.34-4.92-7.61,0-.08-.05-.12-.13-.13-.22-.03-.45-.05-.69-.05-2.16-.02-4.24,0-6.26,0-.08,0-.13-.04-.13-.12v-5.29c0-.09.04-.14.14-.14h7.4c.11,0,.21-.08.24-.18,1.09-3.39,3.98-5.6,7.46-6.25,2.66-.49,4.85.37,7.01,1.92h-.02ZM110.98,106.71c2.7.29,5.14-1.7,5.44-4.45h0c.3-2.75-1.65-5.22-4.35-5.51h0c-2.7-.29-5.14,1.7-5.44,4.45h0c-.3,2.75,1.65,5.22,4.35,5.51h0Z"/>
  <rect class="cls-1" x="126.19" y="85.37" width="5.93" height="4.63" transform="translate(-.15 .23) rotate(-.1)"/>
  <path class="cls-1" d="M166.69,103.03v8.61s-.04.08-.08.08h-5.22c-.11,0-.16-.06-.16-.17v-26.1c0-.05.04-.1.1-.1h5.21c.08,0,.15.07.15.16h0v13.23c.01.22.08.25.23.08,1.55-1.86,3.01-3.77,4.38-5.73.71-1.02,1.53-1.2,2.78-1.17,1.52.04,3.14.05,4.87,0,.04,0,.08.03.08.07,0,.02,0,.04-.02.05l-7.06,8.41c-.08.09-.09.22-.02.32l6.9,10.74c.06.09.03.14-.07.14-2.07,0-4.03,0-5.86-.02-.43,0-.77-.21-1-.62-1.62-2.77-3.27-5.46-4.95-8.07-.15-.24-.23-.22-.23.07h-.03Z"/>
  <rect class="cls-1" x="61.92" y="85.81" width="5.9" height="25.9"/>
  <path class="cls-1" d="M44.15,103.56c.17,1.19.67,2.07,1.49,2.64,1.48,1.03,3.93,1.45,5.38.14.62-.55,1.29-1.03,2.14-1.04,1.41,0,2.92,0,4.52-.02.09,0,.17.07.17.17v.06c-.73,2.19-2.07,3.86-4.01,5.01-3.29,1.95-6.54,2.11-9.75.51-6.12-3.06-7.7-11.13-3.26-16.3,4.72-5.48,13.14-4.66,16.63,1.8,1.11,2.06,1.47,4.33,1.08,6.83,0,.06-.06.11-.13.11h-14.17s-.08.04-.08.08h0s-.01.01-.01.01ZM44.39,99.41h8.26s.03-.03.03-.04h0c0-1.8-1.85-3.26-4.13-3.25h-.06c-2.28,0-4.12,1.46-4.12,3.26h0s.01.03.03.03h-.01Z"/>
  <path class="cls-1" d="M87,110.61c-5.97,3.47-13.83.85-15.62-6.13-.96-3.73-.12-7.74,2.69-10.4,4-3.78,10.56-3.88,14.53-.22,4.87,4.49,4.44,13.24-1.6,16.75h0ZM81.48,106.59c2.56,0,4.62-2.24,4.6-4.97h0c-.01-2.73-2.1-4.94-4.66-4.92-2.56,0-4.62,2.24-4.6,4.97h0c.01,2.73,2.1,4.94,4.66,4.92Z"/>
  <path class="cls-1" d="M150.79,93.1l.05-1.04c0-.18.1-.27.28-.27h5.47c.06,0,.1.04.1.09h0v19.67c0,.07-.05.13-.12.13h-5.55c-.1,0-.18-.08-.19-.18l-.07-1.59c0-.05-.05-.09-.1-.09-.03,0-.05,0-.07.03-1.94,2.41-4.9,2.87-7.85,2.2-3.54-.8-5.87-3.31-6.94-6.68-1.1-3.48-.45-7.95,1.95-10.81,2.08-2.48,4.8-3.58,8.15-3.27,1.65.15,3.27,1.07,4.69,1.9.06.03.13,0,.17-.05,0-.02.02-.04.02-.06v.02ZM146.01,106.78c2.68-.03,4.83-2.29,4.8-5.06h0c-.03-2.77-2.23-4.99-4.91-4.96s-4.83,2.29-4.8,5.06h0c.03,2.77,2.23,4.99,4.91,4.96h0Z"/>
  <path class="cls-1" d="M10.82,93.92s.04.08.09.08c.02,0,.05,0,.06-.03.82-1.09,1.81-1.81,2.97-2.16,2.44-.72,5.13-.29,6.82,1.7.35.41.68.84.99,1.29.03.04.09.05.13.02,0,0,.02,0,.02-.02,1.77-2.52,4.17-3.61,7.19-3.25,2.37.28,4.43,1.61,5.39,3.8.29.67.46,1.59.5,2.75.16,4.48.08,8.98.01,13.49,0,.09-.05.14-.14.14h-5.44c-.06,0-.1-.05-.1-.1.02-3.28.01-6.49-.02-9.62-.02-1.9.19-4.63-2.4-4.92-2.32-.26-3.66,1-3.7,3.3-.06,3.74-.07,7.48-.01,11.21,0,.1-.05.15-.15.15l-5.63-.02s-.08-.04-.08-.08c.02-3.95.02-7.49-.01-10.64-.03-2.35-.74-4.29-3.56-3.89-1.08.15-1.79.71-2.13,1.68-.36,1.03-.51,2.1-.53,3.18-.07,3.19-.11,6.38-.12,9.59,0,.11-.06.17-.17.17h-5.18c-.06,0-.1-.05-.1-.11v-19.2c0-.07.03-.11.1-.11h4.97c.08,0,.15.06.16.14l.07,1.48v-.02Z"/>
  <path class="cls-1" d="M126.18,111.59v-19.64c0-.07.06-.13.13-.13h5.68c.07,0,.13.06.13.13v19.63c0,.07-.06.13-.13.13h-5.68c-.07,0-.13-.05-.13-.13h0Z"/>
</svg>