<?xml version="1.0" encoding="UTF-8"?>
<svg id="Layer_1" data-name="Layer 1" xmlns="http://www.w3.org/2000/svg" viewBox="0 0 2746 1055">
  <defs>
    <style>
      .cls-1 {
        fill: #f2ba51;
      }

      .cls-2 {
        fill: #191832;
      }
    </style>
  </defs>
  <path class="cls-2" d="M2746,2.13v823.35c-.71,1.12-1.45,1.75-2.89,1.75-50.2.03-100.24.03-150.12,0-1.39,0-2.52-1.14-2.52-2.53V3.21c0-1.49,1.21-2.7,2.7-2.7,49.85-.03,99.84-.03,149.95,0,1.38,0,2.1.61,2.88,1.62Z"/>
  <path class="cls-2" d="M2267.98,522.74c-.29.33-.29.83,0,1.16l266.27,299.97c.3.34.27.87-.07,1.17-.15.13-.35.21-.55.21h-183.48c-.38,0-.74-.16-.99-.44l-222.54-250.71c-.18-.2-.49-.23-.69-.05-.11.1-.17.23-.17.38v249.37c0,.81-.65,1.46-1.45,1.46h-147.81c-1,0-1.5-.5-1.5-1.51V3.27c0-.7.56-1.27,1.26-1.27h148.5c.55,0,1,.45,1,1v472.21c0,.34.23.63.55.72.45.12.88.02,1.31-.29.27-.2,58.67-66.49,175.21-198.86.3-.34.74-.53,1.19-.53h178.7c1.11,0,1.38.5.82,1.49-.12.22-.42.6-.9,1.15-90.8,102.95-162.35,184.24-214.66,243.85Z"/>
  <ellipse class="cls-1" cx="287.16" cy="113.18" rx="84.82" ry="82.97" transform="translate(-7.03 19.79) rotate(-3.9)"/>
  <circle class="cls-1" cx="544.75" cy="113.44" r="82.61"/>
  <path class="cls-2" d="M0,825.02V277.51c.46-.83,1.13-1.26,2.14-1.26h145.66c1.8,0,2.7.9,2.7,2.7v56.95c0,.54.44.98.99.97.25,0,.48-.1.66-.26.11-.11.22-.23.34-.38,5.76-7.15,10.21-13.1,15.3-18.35,29.11-30.03,64.51-47.31,106.22-51.83,10.57-1.15,22.09-1.4,34.58-.76,6.79.35,13.41.96,19.86,1.85,40.88,5.57,77.16,23.77,105.22,53.44,11.93,12.61,22.36,26.72,31.31,42.32.45.79,1.45,1.06,2.24.6.18-.1.33-.24.46-.39.22-.28.51-.71.86-1.3,20.94-35.19,49.3-61.1,85.09-77.71,54.19-25.15,119.12-26.34,173.45-1.25,30.52,14.1,55.78,36.17,74.23,64.59,20.53,31.61,32.26,69.44,37.14,106.9,2.49,19.11,3.64,39.08,3.45,59.92,0,.81,0,2.14,0,3.99.13,57.17.16,146.09.08,266.75,0,.37-.01,1.13-.03,2.26-.17,8.91-.23,20.8-.2,35.66,0,1.28-1.03,2.32-2.32,2.33h-144.95c-1.66,0-3.01-1.35-3.02-3.01l-.22-142.46c-.08-45.72-.04-80.27.12-92.98.19-22.26.2-40.56.03-54.9-.32-25.88-3.13-51.96-11.47-76.02-2.1-6.05-4.56-12.27-8.04-17.12-3.17-4.43-6.94-8.35-11.31-11.75-9.87-7.7-16.7-12.98-20.49-15.83-5.74-4.35-11.66-6.87-19.45-7.77-13.53-1.57-25.69-1.33-36.48.72-21.95,4.17-39.82,14.89-53.63,32.16-35.09,43.93-34.24,102.16-34.02,155.46,0,.81-.01,1.81-.06,3-.19,5.15-.25,69.69-.19,193.63.01,9.63-.42,23.29-.22,34.52.02,1.28-.99,2.33-2.27,2.35-.01,0-.03,0-.04,0h-144.71c-2.17,0-3.26-1.09-3.26-3.26,0-96.17,0-192.5,0-289,0-3.08-.25-5.98-.29-8.94-.27-16.55-2.09-32.63-5.46-48.26-2.57-11.91-6.5-23.05-11.79-33.42-2.66-5.19-6.98-9.63-12.31-14.06-11.33-9.41-17.38-14.41-18.14-15.01-7.64-6.03-15.32-9.43-25.62-10.28-8.57-.71-15.53-.97-20.89-.78-8.43.31-16.92,2.67-25.46,7.08-6.44,3.33-15.12,8.05-26.05,14.17-4.45,2.49-8.65,5.61-12.61,9.37-2.63,2.49-5.9,6.9-9.83,13.21-17.11,27.48-24.35,59.05-25.91,91.89-.57,12.06-.77,25.18-.6,39.35.03,2.41-.29,5.12-.29,7.28,0,82.63,0,161.95,0,237.98,0,1.49-1.21,2.69-2.7,2.69l-147.81-.24Z"/>
  <path class="cls-2" d="M1713.44,361.3c.38-.38.88-1.25,1.51-2.62,5.2-11.37,9.36-20.77,16.6-29.38,7.51-8.91,12.35-14.57,14.53-16.98,3.03-3.33,6.81-6.68,11.35-10.05,41.73-30.93,88.26-39.69,139.6-26.28,1.16.3,1.97,1.35,1.97,2.54v148.18c0,.93-.75,1.68-1.67,1.68-.17,0-.34-.03-.51-.08-52.3-16.44-115.66-18.32-153.06,29.45-19.03,24.3-27.85,56.21-30.58,87.38-.41,4.66-.62,11.32-.63,19.97-.05,26.41-.08,76.37-.09,149.89,0,.29,0,1.21-.01,2.75-.2,40.39-.27,75.36-.2,104.91,0,1.42-1.15,2.58-2.57,2.59h-144.93c-1.66,0-3-1.34-3-3V278.75c0-1.38,1.12-2.5,2.5-2.5h146.24c.97,0,1.76.79,1.76,1.76h0s.01,82.75.01,82.75c0,1.15.39,1.33,1.18.54Z"/>
  <path class="cls-2" d="M1171.9,628.69c.87.25,1.47-.04,1.82-.87l143.67-349.86c.42-1.03,1.43-1.71,2.54-1.71h160.75c1.23,0,2.22.99,2.22,2.22,0,.31-.06.62-.19.9l-342.55,773.44c-.46,1.02-1.47,1.68-2.59,1.68h-158.62c-1.23,0-2.23-1-2.23-2.23,0-.31.06-.62.19-.9l113.41-256.05c.29-.65.28-1.39,0-2.04l-228.71-514.1c-.46-1.05.01-2.28,1.06-2.74.26-.12.55-.18.84-.18h159.96c1.09,0,2.07.66,2.48,1.66,48.11,116.33,96.27,232.82,144.5,349.45.3.73.82,1.14,1.46,1.33Z"/>
</svg>