<?xml version="1.0" encoding="UTF-8"?>
<svg id="Layer_1" data-name="Layer 1" xmlns="http://www.w3.org/2000/svg" viewBox="0 0 400 120">
  <defs>
    <style>
      .cls-1 {
        stroke: gray;
      }

      .cls-1, .cls-2, .cls-3 {
        fill: none;
        stroke-width: 2px;
      }

      .cls-4 {
        fill: #fff;
      }

      .cls-2 {
        stroke: maroon;
      }

      .cls-5 {
        fill: red;
      }

      .cls-3 {
        stroke: #ff8080;
      }
    </style>
  </defs>
  <g>
    <path class="cls-1" d="M96.4,109.07l11.46-.15c.35,0,.52-.18.52-.52l.14-9.47" vector-effect="non-scaling-stroke"/>
    <path class="cls-2" d="M108.52,98.93c.06-13.26.02-26.4-.12-39.43-.09-8.57-2.13-16.32-6.13-23.23C87.95,11.54,55.92,3.43,32.15,20.13c-14.29,10.04-22.05,26.27-20.82,43.68,1.49,21.01,16.7,39.11,37.04,43.91,3.92.92,10.55,1.38,19.88,1.37,9.3-.01,18.68-.02,28.15-.02" vector-effect="non-scaling-stroke"/>
    <path class="cls-3" d="M108.52,98.93l-7.35-7.3c-.23-.23-.28-.5-.15-.81,4.17-9.15,4.04-17.83-.4-26.02-1.29-2.39-3.19-4.82-5.71-7.31-1.57-1.55-4.48-4.48-8.71-8.79-.29-.29-.76-.3-1.05-.01l-5.96,5.97c-.1.1-.26.1-.35,0,0,0,0,0,0,0l-16.67-16.7c-2.22-2.23-4.44-2.32-6.65-.28-.08.07-.12.11-.13.12-2.06,2.18-2,4.36.18,6.55l16.81,16.87c.09.09.09.25,0,.34,0,0,0,0,0,0l-13,13c-.09.09-.23.09-.32,0l-16.68-16.71c-2.26-2.27-4.48-2.37-6.67-.3,0,0-.05.04-.13.13-2.04,2.23-1.91,4.49.38,6.78l16.57,16.58c.13.13.13.25,0,.38l-5.36,5.36c-.21.21-.22.43,0,.65.55.57,3.12,3.16,7.73,7.77,3.45,3.45,6.24,5.77,8.37,6.95,8.13,4.53,16.81,4.68,26.05.43.28-.13.6-.07.82.15l6.28,6.35" vector-effect="non-scaling-stroke"/>
  </g>
  <path d="M118.68,118.9c-.06.06-.13.09-.21.09-30.36.01-48.66.04-54.91.08-7.68.05-13.32-.38-16.93-1.28-12.69-3.15-23.08-9.43-31.18-18.82C-4.81,75.5-4,40.76,18.19,18.55,40.37-3.67,75.11-4.52,98.61,15.7c9.4,8.09,15.69,18.47,18.86,31.16.9,3.6,1.33,9.24,1.3,16.92-.03,6.25-.04,24.55,0,54.91,0,.09-.03.16-.08.21ZM96.4,109.07l11.46-.15c.35,0,.52-.18.52-.52l.14-9.47c.06-13.26.02-26.4-.12-39.43-.09-8.57-2.13-16.32-6.13-23.23C87.95,11.54,55.92,3.43,32.15,20.13c-14.29,10.04-22.05,26.27-20.82,43.68,1.49,21.01,16.7,39.11,37.04,43.91,3.92.92,10.55,1.38,19.88,1.37,9.3-.01,18.68-.02,28.15-.02Z"/>
  <circle class="cls-5" cx="334" cy="8.31" r="7.3"/>
  <rect class="cls-5" x="348.56" y="3.66" width="12.02" height="61.04" rx=".88" ry=".88"/>
  <rect class="cls-5" x="368.55" y="3.67" width="12.04" height="61" rx=".82" ry=".82"/>
  <path class="cls-5" d="M185.98,29.11c-.3,0-.54.24-.54.54-.03,9.23-.03,16.01,0,20.34.01,1.85.71,3.08,2.1,3.69,1.6.71,2.94.15,4.53.6.35.1.53.33.53.7v8.81c0,.38-.19.59-.57.63-4.88.49-9.18.15-12.9-1.01-4.47-1.39-5.29-5.88-5.35-10.6-.06-4.47-.05-12.12.02-22.95,0-.49-.24-.74-.73-.74h-3.34c-.93,0-1.4-.47-1.4-1.4v-6.44c0-.91.45-1.36,1.36-1.36h3.39c.38,0,.68-.3.68-.68v-10c0-.45.37-.81.82-.81h10.13c.39,0,.71.31.71.7v10.31c0,.26.21.47.47.47h6.4c.72,0,1.3.58,1.3,1.3h0v6.59c0,.87-.44,1.31-1.31,1.31h-6.3Z"/>
  <path class="cls-5" d="M108.52,98.93l-7.35-7.3c-.23-.23-.28-.5-.15-.81,4.17-9.15,4.04-17.83-.4-26.02-1.29-2.39-3.19-4.82-5.71-7.31-1.57-1.55-4.48-4.48-8.71-8.79-.29-.29-.76-.3-1.05-.01l-5.96,5.97c-.1.1-.26.1-.35,0,0,0,0,0,0,0l-16.67-16.7c-2.22-2.23-4.44-2.32-6.65-.28-.08.07-.12.11-.13.12-2.06,2.18-2,4.36.18,6.55l16.81,16.87c.09.09.09.25,0,.34,0,0,0,0,0,0l-13,13c-.09.09-.23.09-.32,0l-16.68-16.71c-2.26-2.27-4.48-2.37-6.67-.3,0,0-.05.04-.13.13-2.04,2.23-1.91,4.49.38,6.78l16.57,16.58c.13.13.13.25,0,.38l-5.36,5.36c-.21.21-.22.43,0,.65.55.57,3.12,3.16,7.73,7.77,3.45,3.45,6.24,5.77,8.37,6.95,8.13,4.53,16.81,4.68,26.05.43.28-.13.6-.07.82.15l6.28,6.35c-9.47,0-18.85,0-28.15.02-9.33,0-15.96-.45-19.88-1.37-20.34-4.8-35.55-22.9-37.04-43.91-1.23-17.41,6.53-33.64,20.82-43.68,23.77-16.7,55.8-8.59,70.12,16.14,4,6.91,6.04,14.66,6.13,23.23.14,13.03.18,26.17.12,39.43Z"/>
  <path class="cls-5" d="M142.02,34.35c1.05,1.22,2.31,2.04,3.8,2.47,9.25,2.69,21.62,6.31,18.35,18.66-3.83,14.53-35.14,13.07-34.57-3.66.03-.77.43-1.16,1.2-1.16h9.71c.41,0,.62.21.65.62.2,3.11,2.07,4.78,5.62,5.03,2.2.15,3.92-.5,5.15-1.97.95-1.13.91-2.8-.11-3.88-.65-.7-1.67-1.26-3.06-1.68-1.8-.55-4.99-1.69-9.57-3.44-6.01-2.3-9.05-6.36-9.11-12.18-.14-13.61,16.51-16.03,25.53-12.12,5.38,2.33,8.15,6.51,8.32,12.52.02.44-.33.81-.77.83-.01,0-.02,0-.03,0h-9.86c-.41,0-.61-.2-.61-.61-.01-1.14-.07-2.29-.99-3.19-3.01-2.97-10.21-2.5-10.03,2.81.01.36.14.68.38.95Z"/>
  <path class="cls-5" d="M235.75,48.39c-.03,9.38-7.66,16.95-17.04,16.92h-3.06c-9.38-.04-16.95-7.67-16.92-17.05l.04-11.98c.03-9.38,7.66-16.95,17.04-16.92h3.06c9.38.04,16.95,7.67,16.92,17.05l-.04,11.98ZM210.75,42.31c0,4.55-.34,12.64,6.48,12.65,6.82.01,6.51-8.09,6.51-12.64,0-4.54.34-12.64-6.48-12.65-6.82-.01-6.51,8.09-6.51,12.64Z"/>
  <path class="cls-5" d="M256.43,61.93c-.63-.75-.94-.63-.94.34v17.69c0,.65-.33.98-.98.98h-10.17c-.52,0-.94-.42-.94-.93h0V20.99c0-.61.49-1.1,1.1-1.1h9.96c.28,0,.54.13.72.35.39.48.46,1.22.23,2.23-.05.21,0,.4.12.57.06.09.14.15.24.18.12.03.22,0,.31-.09,2.2-2.57,5.26-3.86,9.19-3.85,9.25,0,13.08,8.25,14.02,16.18,1.41,11.9.82,30.34-14.95,29.97-3.39-.08-6.03-1.25-7.91-3.5ZM255.57,42.3c-.01,4.64,0,12.65,5.98,12.66,5.97.01,6.02-7.99,6.03-12.63.01-4.65,0-12.65-5.98-12.67-5.98-.01-6.02,7.99-6.03,12.64Z"/>
  <path class="cls-5" d="M302.53,64.66c-2.11,0-4.22-.03-6.35-.1-.2,0-.38-.14-.43-.33l-12.2-43.28c-.12-.43.14-.88.56-.99.07-.02.14-.03.21-.03h11.2c.54,0,1.01.38,1.12.91,2.36,10.99,4.19,19.7,5.48,26.12.03.13.07.22.14.27.09.07.18.11.28.11.11,0,.2-.04.29-.11.07-.05.11-.14.14-.27,1.31-6.42,3.15-15.12,5.53-26.11.11-.53.58-.91,1.12-.91l11.2.02c.44,0,.8.36.8.81,0,.08-.01.15-.03.22l-12.28,43.25c-.05.19-.23.33-.43.33-2.13.06-4.24.09-6.35.09Z"/>
  <rect class="cls-5" x="327.84" y="19.92" width="12.22" height="44.76" rx="1.17" ry="1.17"/>
  <path class="cls-4" d="M108.52,98.93l-.14,9.47c0,.34-.17.51-.52.52l-11.46.15-6.28-6.35c-.22-.22-.54-.28-.82-.15-9.24,4.25-17.92,4.1-26.05-.43-2.13-1.18-4.92-3.5-8.37-6.95-4.61-4.61-7.18-7.2-7.73-7.77-.21-.22-.2-.44,0-.65l5.36-5.36c.13-.13.13-.25,0-.38l-16.57-16.58c-2.29-2.29-2.42-4.55-.38-6.78.08-.09.12-.13.13-.13,2.19-2.07,4.41-1.97,6.67.3l16.68,16.71c.09.09.23.09.32,0l13-13c.09-.09.09-.25,0-.34,0,0,0,0,0,0l-16.81-16.87c-2.18-2.19-2.24-4.37-.18-6.55,0,0,.05-.05.13-.12,2.21-2.04,4.43-1.95,6.65.28l16.67,16.7c.09.1.25.11.35.02,0,0,0,0,0,0l5.96-5.97c.29-.29.76-.28,1.05.01,4.23,4.31,7.14,7.24,8.71,8.79,2.52,2.49,4.42,4.92,5.71,7.31,4.44,8.19,4.57,16.87.4,26.02-.13.31-.08.58.15.81l7.35,7.3Z"/>
  <path class="cls-5" d="M279.98,86.49c-.07.11-.27.46-.59,1.05-.56,1.03-1.39,1.13-2.46.84-.22-.06-.31-.32-.21-.59.02-.06.05-.11.09-.16.07-.09.57-.84,1.48-2.24.07-.11.27-.45.59-1.04.56-1.04,1.39-1.14,2.46-.85.22.06.31.32.22.59-.02.06-.06.12-.1.17-.07.09-.56.83-1.48,2.23Z"/>
  <circle class="cls-5" cx="148.37" cy="85.96" r="2"/>
  <circle class="cls-5" cx="310.88" cy="85.96" r="2"/>
  <rect class="cls-5" x="361.18" y="83.94" width="2.64" height="27.8" rx=".67" ry=".67"/>
  <rect class="cls-5" x="155.59" y="83.9" width="2.72" height="27.84" rx=".54" ry=".54"/>
  <rect class="cls-5" x="163.8" y="83.93" width="2.68" height="27.8" rx=".52" ry=".52"/>
  <circle class="cls-5" cx="329.81" cy="86.17" r="1.77"/>
  <circle class="cls-5" cx="335.77" cy="86.18" r="1.77"/>
  <path class="cls-5" d="M388.58,91.66c.22,0,.39-.17.39-.38h0v-4.13c0-.36.18-.54.54-.54h1.45c.41,0,.61.2.61.61v3.91c0,.37.18.55.55.55h2.9c.67,0,.98.33.91.99,0,.11,0,.21,0,.28.01.51-.46.94-1.06.94-.03,0-.07,0-.1,0l-2.54-.18c-.41-.03-.61.17-.62.58-.07,4.09-.09,7.83-.05,11.21.03,2.91,1.12,4.2,3.25,3.89.69-.1,1.04.2,1.04.9v.54c0,.39-.28.71-.66.76-5.58.79-6.27-2.09-6.27-6.84,0-5.11.04-8.53.09-10.26.01-.37-.16-.61-.52-.7-.34-.08-.8-.05-1.37.09-.45.12-.68-.05-.68-.52v-1.05c0-.36.29-.65.65-.65h1.5Z"/>
  <path class="cls-5" d="M181.93,110.1c-.1.05-.22.17-.36.35-.16.21-.36.39-.58.52-3.72,2.16-9.49,1.33-9.93-3.83-.59-6.95,5.71-7.34,10.85-7.29.35,0,.55-.16.62-.5,1.01-5.42-5.48-7.93-7.85-3.33-.3.57-.77.85-1.41.85h-.8c-.85,0-1.09-.38-.73-1.15,1.7-3.59,4.63-4.93,8.78-4.03,4.02.87,4.75,4.28,4.74,8.35,0,2.27,0,5.88.03,10.83,0,.5-.39.92-.89.96-1.34.11-1.98-.35-1.92-1.37.03-.44-.16-.56-.55-.36ZM182.51,106.15c.07-1.61.08-2.76.04-3.45-.03-.36-.22-.55-.58-.57-2.99-.12-4.86-.01-5.61.32-2.55,1.15-3.31,2.96-2.29,5.42,1.4,3.38,8.3,1.86,8.44-1.72Z"/>
  <path class="cls-5" d="M203.35,94.28c3.82-4.92,10.73-3.21,10.9,3.28.07,2.97.1,7.49.07,13.56,0,.4-.2.6-.6.6h-1.4c-.42,0-.63-.21-.64-.63l-.11-13.53c-.02-2.31-1.3-3.53-3.85-3.66-.05,0-.1,0-.15,0-2.55.17-3.84,1.47-3.85,3.92l-.08,13.23c0,.44-.23.66-.67.66h-1.32c-.42,0-.63-.21-.63-.64v-13.44c0-2.49-1.25-3.74-3.76-3.73-.15,0-.24,0-.28-.01-1.91-.17-3.6,1.3-3.77,3.3,0,.11-.01.22-.01.32v13.52c0,.47-.24.7-.71.7h-1.42c-.43,0-.64-.21-.64-.64v-18.82c0-.39.19-.58.57-.58h1.41c.35,0,.57.17.66.51.05.2.05.42-.01.65-.12.49.05.62.5.39.84-.42,1.46-1.2,2.31-1.44,3.11-.91,5.42-.09,6.95,2.45.16.27.34.28.53.03Z"/>
  <path class="cls-5" d="M233.5,105.44c0,3.63-2.95,6.58-6.58,6.58h-.98c-3.63,0-6.58-2.95-6.58-6.58v-7.4c0-3.63,2.95-6.58,6.58-6.58h.98c3.63,0,6.58,2.95,6.58,6.58h0v7.4ZM230.87,97.98c0-2.33-1.88-4.21-4.21-4.21h-.52c-2.33,0-4.21,1.88-4.21,4.21h0v7.5c0,2.33,1.88,4.21,4.21,4.21h.52c2.33,0,4.21-1.88,4.21-4.21v-7.5Z"/>
  <path class="cls-5" d="M244.27,102.96c-2.87-1.06-5.73-1.99-6.16-5.11-1.06-7.87,12.35-8.63,13.2-1.08.05.45-.15.67-.6.67h-1.21c-.48,0-.76-.24-.83-.71-.46-2.8-3.35-3.55-5.65-2.84-2.57.8-3.34,3.76-.96,5.38.4.27,1.39.7,2.97,1.28,2.87,1.07,5.74,2,6.16,5.12,1.06,7.87-12.35,8.63-13.2,1.08-.05-.45.15-.67.6-.67h1.21c.48,0,.76.24.83.71.46,2.8,3.35,3.55,5.65,2.84,2.57-.8,3.34-3.76.97-5.38-.41-.27-1.4-.7-2.98-1.29Z"/>
  <path class="cls-5" d="M260.47,102.96c-2.87-1.07-5.73-2-6.15-5.13-1.04-7.87,12.37-8.6,13.21-1.05.05.45-.15.67-.6.67h-1.21c-.48,0-.76-.24-.83-.71-.46-2.81-3.35-3.56-5.65-2.86-2.57.8-3.35,3.76-.98,5.38.41.28,1.4.71,2.98,1.29,2.87,1.08,5.73,2.01,6.15,5.14,1.05,7.87-12.37,8.6-13.21,1.05-.04-.45.16-.67.61-.67h1.21c.48,0,.75.24.82.71.46,2.81,3.35,3.56,5.65,2.86,2.57-.8,3.35-3.76.98-5.38-.41-.28-1.4-.71-2.98-1.3Z"/>
  <path class="cls-5" d="M282.36,110.45c.03-.44-.16-.56-.55-.36-.1.05-.22.17-.36.35-.16.21-.36.39-.58.52-3.72,2.16-9.49,1.32-9.92-3.84-.58-6.94,5.71-7.32,10.85-7.27.35,0,.55-.16.62-.5,1.01-5.41-5.47-7.93-7.84-3.33-.3.57-.77.85-1.41.84h-.8c-.85,0-1.09-.38-.73-1.15,1.7-3.58,4.63-4.92,8.78-4.01,4.01.87,4.74,4.28,4.73,8.34-.01,2.27,0,5.88.01,10.83,0,.5-.39.91-.89.95-1.33.11-1.97-.35-1.91-1.37ZM282.44,106.13c.06-1.61.07-2.77.02-3.46-.03-.36-.22-.55-.58-.56-3.01-.11-4.88,0-5.63.34-2.55,1.17-3.3,2.98-2.27,5.44,1.42,3.39,8.33,1.84,8.46-1.76Z"/>
  <path class="cls-5" d="M301.28,109.98c0-.17-.13-.31-.31-.31-.09,0-.18.04-.24.11-.82.95-1.63,1.53-2.42,1.75-4.98,1.37-8.2-1.87-8.5-6.72-.23-3.72-.69-9.71,2.72-12.21,2.53-1.86,5.24-1.63,8.14.68.27.21.46.16.59-.15.09-.21.1-.35.03-.43-.18-.22-.02-.6.36-.86.04-.03.09-.06.13-.08.42-.21.94-.2,1.56.04.31.12.47.49.47,1.1-.02,10.07,0,16.1.07,18.09.08,2.11-.45,4.04-1.59,5.79-1.77,2.71-4.59,2.33-7.99,2.18-.45-.03-.67-.26-.67-.7v-.34c0-.25.2-.46.46-.47,5.87-.27,7.14-2.43,7.19-7.47ZM301.11,97.82c0-2.23-1.8-4.03-4.03-4.03h-.48c-2.23,0-4.03,1.8-4.03,4.03v7.68c0,2.23,1.8,4.03,4.03,4.03h.48c2.23,0,4.03-1.8,4.03-4.03v-7.68Z"/>
  <path class="cls-5" d="M371.63,103.16c-.37,2.93.44,5.89,3.82,6.49,2.15.38,3.84-.45,5.05-2.49.39-.66.92-.79,1.58-.4l.28.17c.52.31.62.72.29,1.23-1.61,2.51-3.57,3.83-5.88,3.94-8.37.41-7.98-7.86-7.7-13.65.11-2.29.72-3.96,1.83-5.02,3.39-3.25,9.24-2.61,11.47,1.71.58,1.11.86,3.43.84,6.95,0,.35-.18.52-.53.52h-10.43c-.37,0-.57.18-.62.55ZM372.15,100.54l7.82-.02c.3,0,.54-.24.54-.54h0v-1.31c-.02-2.76-1.95-4.98-4.34-4.98h-.26c-2.39,0-4.32,2.24-4.31,5h0s0,1.31,0,1.31c0,.3.24.54.54.54h0Z"/>
  <path class="cls-5" d="M135.45,107.4c.21,0,.34-.11.4-.34,1.29-5.05,2.61-9.99,3.96-14.83.1-.35.33-.53.7-.53h1.66c.45,0,.62.22.49.65l-5.56,18.68c-.1.33-.32.54-.66.62-.29.07-.62.11-.99.11s-.71-.04-1-.11c-.33-.08-.55-.29-.65-.62l-5.54-18.69c-.13-.43.04-.65.49-.65h1.66c.37,0,.6.19.7.54,1.35,4.84,2.66,9.78,3.95,14.82.05.23.18.35.39.35Z"/>
  <rect class="cls-5" x="147.06" y="91.69" width="2.64" height="20.02" rx=".48" ry=".48"/>
  <rect class="cls-5" x="309.59" y="91.68" width="2.72" height="20.04" rx=".48" ry=".48"/>
  <path class="cls-5" d="M336.67,110.16c0-.1-.07-.18-.17-.19-.05,0-.09.01-.13.05-1.69,1.61-3.38,2.29-5.06,2.02-4.63-.72-5.4-3.4-5.43-7.78-.03-4.05-.04-8.02-.02-11.92,0-.43.22-.65.66-.65h1.49c.38,0,.57.19.57.57v13.26c0,2.61,1.3,4,3.91,4.17.21.01.35.02.42,0,2.56-.33,3.85-1.74,3.86-4.22l.06-13.3c0-.33.16-.49.49-.49h1.66c.36,0,.54.18.54.54v18.57c0,.61-.31.95-.92,1-1.37.12-2.01-.43-1.93-1.64Z"/>
  <path class="cls-5" d="M349.29,101.02c2.42-3.53,3.86-5.63,4.32-6.29.11-.17.07-.39-.1-.5-.06-.04-.12-.06-.19-.06h-8.84c-.53,0-.8-.27-.8-.8v-.88c0-.51.26-.77.77-.77h11.42c.75,0,1.36.61,1.36,1.36,0,.24-.06.47-.18.68-.97,1.69-2.87,4.58-5.68,8.69-2.43,3.53-3.87,5.63-4.33,6.29-.11.17-.07.39.1.5.06.04.12.06.19.06h8.84c.53,0,.8.27.8.8v.88c0,.51-.26.77-.77.77h-11.42c-.75,0-1.36-.62-1.35-1.37,0-.24.06-.47.18-.67.97-1.69,2.87-4.58,5.68-8.69Z"/>
</svg>