<?xml version="1.0" encoding="UTF-8"?>
<svg id="Layer_1" data-name="Layer 1" xmlns="http://www.w3.org/2000/svg" viewBox="0 0 2048 1378.7">
  <defs>
    <style>
      .cls-1 {
        fill: #232122;
      }

      .cls-2 {
        fill: #2c2b29;
      }
    </style>
  </defs>
  <path class="cls-1" d="M1637.16,269.53c.31-.12.47-.46.35-.77-.02-.05-.05-.1-.08-.15-8.97-11.87-16.98-28.12-15.39-43.17,1.68-15.95,15.06-24.6,29.19-29.45.41-.14.62-.58.48-.98,0-.01,0-.02-.01-.04-3.74-9.17-5.58-20.02-1.35-29.23,1.37-2.98,3.69-6.91,6.96-11.8,5.62-8.38,7.04-17.75,4.27-28.12-.58-2.16-1.26-5-2.04-8.53-2.91-13.2,5.35-23.13,15.13-30.52,10.67-8.07,22.85-15.39,36.54-21.96,1.95-.93,4.44-1.69,7.47-2.28,3.72-.72,10.29-1.49,19.72-2.31,24.94-2.17,39.19-3.57,42.75-4.19,17.86-3.11,29.87-4.87,36.03-5.29,17.03-1.16,32.6-3.42,46.7-6.79,10.17-2.43,22.82-6.61,37.94-12.55,21.6-8.47,43.39-18.6,65.36-30.38,1.12-.6,3.05-.97,4.51-.97,21.75-.03,46.52-.05,74.3-.05.5,0,.75.25.75.75v173.54c0,.44-.25.85-.65,1.06-11.05,5.64-27.29,13.6-48.71,23.89-21.11,10.14-41.17,21.83-55.86,38.89-7.27,8.42-13.69,17.81-20.32,28.21-14.27,22.41-29.23,45.2-44.86,68.37-1.97,2.92-5.15,8.44-9.54,16.55-1.02,1.89-2.28,3.6-3.77,5.12-5.98,6.09-11.12,12.99-18.84,23.15-4.81,6.35-8.31,11.98-10.48,16.9-2.23,5.04-5.8,8-8.67,12.5-9.05,14.15-16.88,29.06-23.49,44.75-2.61,6.21-3.55,12.89-2.81,20.04,1.27,12.17,4.49,23.07,7.32,35.35,1.38,6,3.66,19.83-.84,23.46-16.22,13.08-31.7.15-40.86-13.71-10.55-15.97-17.65-33.95-21.32-53.93-5.08-27.63,8.25-52.71,19.22-77.02,6.27-13.87,9.62-28.07,7.06-42.66-.12-.72-.7-1.29-1.42-1.4-12-1.99-23.32-3.33-35.69-4.02-23.73-1.33-47.82-1.92-72.28-1.75-62.4.42-100.73,1.13-154.03-.01-19.53-.41-38.77-1.46-57.72-3.15-17.22-1.53-58.84-5.02-56.14-31.22,1.07-10.45,6.67-17.38,16.8-20.79,12.41-4.17,27.71-3.83,40.06-2.93.79.06,7.43.64,19.93,1.74.57.05,1.92,0,4.07-.16,70.93-5.09,125.09-8.99,162.5-11.7.82-.06,1.41-.16,1.76-.29Z"/>
  <path class="cls-2" d="M581.71,404.69h-26.94c-.32,0-.58-.26-.58-.58,0-.11.03-.21.08-.3l25.27-41.16c.1-.17.29-.28.49-.28h39.52c.32,0,.58.26.58.58,0,.14-.05.28-.15.39l-37.85,41.16c-.11.12-.26.19-.42.19Z"/>
  <path class="cls-2" d="M1487.19,404.69h-26.66c-.39,0-.71-.31-.71-.71,0-.13.04-.26.1-.37l25.11-40.9c.13-.21.36-.34.61-.34h39.15c.39,0,.71.31.72.7,0,.18-.07.35-.19.49l-37.61,40.9c-.13.15-.32.23-.52.23Z"/>
  <path class="cls-2" d="M703.72,636.73c3.14,11.25,12.86,14.33,23.55,13.41,13.92-1.21,18.05-12.24,18.27-24.86.35-20.33-11.48-36.29-26.25-49.94-10.03-9.27-17.54-16.31-22.54-21.13-20.97-20.22-33.75-43.1-33.14-72.96.26-12.38,1.95-24.33,6.98-34.87,8.39-17.59,23.25-27.58,44.57-29.97,9.65-1.09,19.17-.62,28.57,1.39,35.41,7.58,45.13,40.87,43.3,72.93-.02.35-.3.62-.65.62h-38.05c-.46,0-.83-.37-.83-.83,0,0,0-.01,0-.02.26-14.1,1.52-34.24-17.79-36.41-12.11-1.35-21.15,3.99-23.35,16.4-5.75,32.42,18.1,52.71,39.5,71.91,7.33,6.57,14.21,13.7,20.66,21.39,12.55,14.95,19.46,32.18,20.75,51.7.67,10.05-.05,19.63-2.14,28.72-7.9,34.26-35.26,47.16-68.47,44.33-23.64-2.01-42.48-14.24-49.92-37.36-4.83-15-4.53-29.96-4.33-45.4,0-.26.21-.46.46-.46h38.54c.34,0,.62.28.62.63-.02,9.15.04,16.6.19,22.33.06,2.26.56,5.08,1.5,8.45Z"/>
  <path class="cls-2" d="M1012.95,415.83c28.45,0,50.86,11.88,59.81,39.61,2.65,8.21,3.96,17.22,3.93,27.01,0,2.1-.01,25.4-.01,69.9s0,67.81.01,69.91c.03,9.79-1.29,18.79-3.94,27-8.95,27.74-31.37,39.61-59.81,39.61s-50.87-11.88-59.81-39.61c-2.65-8.21-3.97-17.22-3.94-27.01,0-2.1.01-25.4.02-69.9,0-44.51,0-67.81-.01-69.91-.03-9.79,1.28-18.8,3.93-27.01,8.96-27.73,31.37-39.6,59.82-39.6ZM1034.51,474.53c-.02-11.38-9.26-20.59-20.65-20.57h-2.16c-11.38.02-20.59,9.27-20.57,20.65h0l.27,155.52c.02,11.38,9.26,20.59,20.65,20.57h2.16c11.38-.02,20.59-9.27,20.57-20.65h0s-.27-155.52-.27-155.52Z"/>
  <path class="cls-2" d="M432.69,633.04c.44,1.42.77,1.41.98-.02l31.43-213.47c.06-.38.38-.66.76-.66h36.94c.44,0,.8.36.8.8,0,.04,0,.08,0,.12l-40.92,265.15c-.09.59-.44.89-1.04.89h-60.77c-.59,0-.93-.29-1.02-.88l-40.93-265.23c-.06-.42.23-.8.64-.86.04,0,.07,0,.11,0h40.05c.94,0,1.48.47,1.61,1.4,17.59,119.39,27.89,189.5,30.9,210.32.17,1.18.33,2,.47,2.45Z"/>
  <path class="cls-2" d="M540.57,685.86h-37.2c-.38,0-.68-.31-.68-.68,0-.04,0-.07,0-.11l42.51-265.63c.05-.33.34-.57.67-.57h60.25c.33,0,.62.24.67.57l42.52,265.63c.06.37-.19.72-.56.78-.04,0-.07,0-.11,0h-40.85c-.34,0-.62-.25-.67-.58l-7.29-47.26c-.05-.33-.33-.58-.67-.58h-50.3c-.34,0-.63.24-.68.58l-6.94,47.26c-.05.34-.34.58-.68.58ZM572.9,468.66c-.13,1.89.04,4.15-.29,6.35-6.65,44.21-12.9,85.85-18.73,124.91-.11.77.22,1.16.99,1.16h38.08c.57,0,1.03-.47,1.03-1.05,0-.05,0-.1-.01-.15-4.47-29.41-10.7-70.99-18.67-124.74-.45-3.04-1.03-5.25-1.72-6.62-.39-.77-.62-.73-.68.14Z"/>
  <path class="cls-2" d="M884.42,457.35c.01-.2-.08-.3-.28-.3h-74.33c-.5,0-.91-.41-.91-.91v-36.43c0-.43.35-.78.78-.78h117.37c.5,0,.9.4.9.9v34.22c0,1.33-.26,2.64-.77,3.85l-78.68,188.92c-.14.34.02.73.36.88.08.03.17.05.26.05h78.06c.43,0,.78.35.78.78v36.73c0,.33-.26.59-.58.59h-121.17c-.73,0-1.09-.36-1.09-1.09-.05-10.38-.06-20.96-.02-31.75,0-3.03.36-5.37,1.05-7.03,33.35-80.29,59.34-142.71,77.97-187.26.17-.41.27-.86.3-1.37Z"/>
  <path class="cls-2" d="M1141.73,495.22c-.4,2.05-.6,5.06-.61,9.03-.09,56.12-.1,116.36-.03,180.72,0,.6-.3.9-.9.9h-35.74c-.6,0-1.08-.48-1.08-1.07h0v-265.34c0-.31.26-.57.57-.57h50.71c.87,0,1.43.42,1.66,1.27,9.08,33.5,22.59,83.57,40.52,150.22.55,2.01,1.21,3.91,1.98,5.7.53,1.21.76,1.14.69-.21-.09-1.8-.42-4.57-.42-6.84-.01-36.89-.03-86.74-.04-149.54,0-.34.28-.62.62-.62h35.98c.48,0,.87.39.87.87v265.51c0,.33-.27.6-.6.6h-41.76c-.46,0-.86-.31-.98-.75l-51.28-189.88c-.06-.23-.11-.23-.16,0Z"/>
  <path class="cls-2" d="M1308.64,532.34c0,1.84.39,1.93,1.18.26l53.16-112.64c.32-.67.99-1.1,1.73-1.1h39.88c.29,0,.53.24.52.54,0,.08-.02.15-.05.22l-57.3,116.78c-.44.9-.48,1.95-.11,2.89l57.36,145.4c.17.45-.05.95-.5,1.12-.1.04-.2.06-.31.06h-40.64c-.79,0-1.32-.37-1.6-1.1l-39.86-103.92c-.14-.35-.54-.53-.89-.4-.15.06-.28.17-.35.31-7.3,13.53-11,20.4-11.11,20.61-.79,1.47-1.18,3.19-1.17,5.16.13,31.59.13,57.79,0,78.59,0,.48-.24.72-.72.72h-40.59c-.4,0-.72-.32-.72-.72h0v-265.64c0-.35.28-.63.62-.63h40.52c.52,0,.94.42.94.94v112.55Z"/>
  <path class="cls-2" d="M1467.44,647.73h70.67c.49,0,.88.39.88.88h0v36.36c0,.49-.39.88-.88.88h-112.72c-.49,0-.88-.39-.88-.88h0v-265.2c0-.49.39-.88.88-.88h112.75c.49,0,.88.39.88.88v36.4c0,.49-.39.88-.88.88h-70.7c-.49,0-.88.39-.88.88h0v72.51c0,.49.39.88.88.88h55.75c.49,0,.88.39.88.88h0v36.5c0,.49-.39.88-.88.88h-55.75c-.49,0-.88.39-.88.88h0v76.39c0,.49.39.88.88.88h0Z"/>
  <path class="cls-2" d="M1607.84,585.56c-.51,0-.92.4-.93.91h0v98.7c0,.38-.3.68-.68.68h-40.58c-.47,0-.85-.38-.85-.85v-265.45c0-.38.3-.68.68-.68,0,0,0,0,.01,0,32.85.02,54.48.04,64.91.05,7.27,0,14.68,1.27,22.21,3.79,25.91,8.68,36,31.95,36.55,57.59.15,7.01.2,19.84.16,38.49-.06,26.96-8.09,53.18-36.14,62.72-14.58,4.96-30.19,4.15-45.34,4.05ZM1606.9,457.97v88.5c0,.53.43.96.96.96h21.24c10.01,0,18.12-8.91,18.12-19.9v-50.62c0-10.99-8.11-19.9-18.12-19.9h-21.24c-.53,0-.96.43-.96.96Z"/>
  <path class="cls-2" d="M1383.87,737.89h-9.1c-.3,0-.54-.25-.54-.54,0-.11.04-.22.1-.32l20.64-27.52c.1-.14.26-.22.43-.22h12.98c.3,0,.54.24.54.54,0,.13-.05.26-.14.36l-24.52,27.52c-.1.11-.25.18-.4.18Z"/>
  <path class="cls-2" d="M378.67,779.11c-.1.23-.08,1.11.06,2.63.13,1.38.19,2.23.19,2.54.1,42.88.11,101.89.03,177.04,0,.57-.46,1.03-1.03,1.03h-10.03c-.73,0-1.33-.6-1.33-1.33v-208.62c0-.2.16-.37.36-.37h18.54c.58,0,1.09.4,1.22.96l43.35,182.6c.23.94.52.96.88.07.63-1.57,1.1-3.01,1.41-4.32,25.52-108.8,39.51-168.29,41.96-178.47.12-.5.57-.86,1.09-.86h18.31c.43,0,.78.35.78.79v208.95c0,.4-.2.6-.6.6h-11.88c-.46,0-.84-.38-.84-.84,0-26.64-.04-79.98-.11-160.01,0-11.13.22-19.16.67-24.09,0-.01,0-.03-.01-.04,0,0-.02,0-.03,0l-.31.07c-.08.02-.13.07-.15.14-1.6,4.87-2.99,9.82-4.17,14.85-23.58,100.57-36.75,156.65-39.51,168.25-.22.91-.8,1.37-1.73,1.37h-11.7c-.4,0-.76-.28-.85-.68-16.21-67.97-30.44-127.45-42.7-178.44-.25-1.02-.71-2.3-1.4-3.83-.16-.35-.32-.35-.47.01Z"/>
  <path class="cls-2" d="M604.19,916.33c-.07-.32-.36-.55-.69-.55h-63.82c-.72,0-1.34.5-1.5,1.21l-9.9,44.08c-.16.74-.82,1.26-1.57,1.26l-10.63.04c-.31,0-.57-.25-.57-.57,0-.04,0-.08.01-.12l45.63-208.95c.14-.6.66-1.02,1.27-1.02h18.46c.37.01.68.26.76.62l46.51,209.02c.15.69-.12,1.03-.82,1.03l-11.42-.02c-.91,0-1.47-.44-1.67-1.33l-10.05-44.7ZM540.71,903.21c-.05.22.09.44.31.49.03,0,.06.01.09.01l60.28-.11c.23,0,.41-.18.41-.41,0-.03,0-.06-.01-.09l-30.38-133.76c-.05-.22-.27-.36-.49-.31-.15.03-.28.16-.31.31l-29.9,133.87Z"/>
  <path class="cls-2" d="M1062.85,916.34c-.07-.32-.36-.55-.69-.55h-63.84c-.72,0-1.34.51-1.5,1.22l-9.9,44.09c-.16.74-.82,1.26-1.57,1.26l-10.63.04c-.31,0-.57-.25-.57-.57,0-.04,0-.08.01-.12l45.62-209.01c.14-.6.66-1.02,1.27-1.02h18.46c.37.01.68.26.76.62l46.55,209.07c.15.69-.12,1.03-.82,1.03l-11.43-.02c-.91,0-1.47-.44-1.67-1.33l-10.05-44.71ZM999.34,903.17c-.06.24.09.47.33.53.03,0,.07.01.1.01l60.21-.11c.24,0,.44-.2.44-.44,0-.03,0-.06,0-.09l-30.34-133.55c-.06-.23-.3-.37-.54-.31-.15.04-.27.16-.31.31l-29.88,133.65Z"/>
  <path class="cls-2" d="M1587.71,916.37l-9.91,45.42c-.08.34-.38.58-.73.58h-11.24c-.41,0-.74-.33-.74-.74,0-.05,0-.11.02-.16l45.66-209.16c.08-.34.38-.58.73-.58h18.94c.35,0,.65.24.72.58l46.55,209.16c.09.4-.16.79-.56.88-.05.01-.1.02-.16.02h-12.37c-.35,0-.65-.24-.72-.58l-10.1-45.42c-.07-.34-.37-.58-.72-.58h-64.64c-.35,0-.65.24-.73.58ZM1590.24,903.15c-.06.24.09.47.33.53.03,0,.07.01.1.01l60.21-.11c.24,0,.44-.2.44-.44,0-.03,0-.06,0-.09l-30.34-133.58c-.06-.23-.3-.37-.54-.31-.15.04-.27.16-.31.31l-29.88,133.68Z"/>
  <path class="cls-2" d="M730.17,927.63c.47.79.72.72.74-.22.03-1.92-.37-4.2-.37-6.22-.02-56.22-.03-112.39-.02-168.51,0-.35.29-.64.65-.64h11.3c.51,0,.76.25.76.76v208.47c0,.6-.49,1.09-1.09,1.09h-12.89c-.8,0-1.52-.51-1.79-1.27-3.56-10.17-23.32-66.38-59.27-168.64-1.69-4.79-3.21-9.33-4.57-13.62-1-3.17-1.5-3.09-1.5.23v182.2c0,.62-.51,1.13-1.13,1.13h-10.62c-.63,0-.94-.31-.94-.94v-208.95c0-.33.16-.49.49-.49h16.91c.46,0,.77.22.92.65,28.55,80.85,49.11,138.55,61.67,173.11.38,1.04.63,1.66.75,1.86Z"/>
  <path class="cls-2" d="M818.14,950.94c21.87-3.13,25.26-25.35,25.24-43.19-.11-87.09-.14-138.8-.09-155.12,0-.33.27-.6.6-.6h11.45c.62,0,.93.31.93.92,0,41.49-.03,94.43-.1,158.81-.02,21.12-7.5,44.76-30.71,50.57-13.32,3.34-29.34,2.27-40.5-5.73-12.68-9.09-17.29-24.11-18.35-39.33-.15-2.03-.22-7.86-.22-17.49,0-92.44,0-141.55,0-147.32,0-.25.21-.45.46-.45h12.53c.46,0,.84.38.84.84,0,6.66-.03,59.22-.08,157.67,0,10.48,1.43,21.2,7.53,29.88,6.81,9.71,18.82,12.21,30.47,10.54Z"/>
  <path class="cls-2" d="M895.32,764.63c-1.05,0-1.57.52-1.57,1.56v86.75c0,.88.71,1.59,1.59,1.59h52.14c.43,0,.77.34.77.77v10.77c0,.51-.42.93-.93.93h-52.59c-.33,0-.61.23-.67.55-.26,1.34-.39,2.84-.38,4.5.09,20.49.09,50.21,0,89.17,0,.77-.39,1.16-1.17,1.16h-11.89c-.38,0-.68-.3-.68-.67v-209.11c0-.33.27-.6.61-.6h78.67c.36,0,.66.3.66.66v11c0,.54-.43.97-.97.97h-63.6Z"/>
  <path class="cls-2" d="M1121.91,861.28c0,.83.25.91.76.26.86-1.1,1.84-2.54,2.94-4.33,16.55-26.95,37.96-61.69,64.23-104.22.37-.6,1.03-.97,1.73-.97h12.08c.35,0,.64.28.64.64,0,.12-.03.23-.09.33l-58.61,95.46c-.55.89-.57,2.02-.05,2.93l62.63,109.92c.2.35.08.8-.27,1-.12.07-.25.1-.38.1h-11.61c-.94,0-1.81-.49-2.29-1.3l-56.77-96.81c-.18-.31-.58-.41-.89-.23-.09.05-.17.13-.23.22-4.07,6.53-8.23,13.13-12.5,19.8-.9,1.41-1.35,2.96-1.35,4.67.07,26.31.07,50.6.02,72.85,0,.42-.34.76-.76.76h-12.13c-.52,0-.94-.43-.94-.95v-208.88c0-.28.22-.5.5-.5h12.85c.27,0,.49.22.49.49v108.76Z"/>
  <path class="cls-2" d="M1271.88,751.99c16.39,0,32.81.04,49.26.11.27,0,.49.21.49.48v10.8c0,.67-.54,1.21-1.22,1.22-7.83.09-19.09.07-33.76-.04-1.05,0-3.41.16-7.1.5-.46.05-.81.43-.81.89v195.3c0,.62-.31.94-.93.96-1.67.07-3.66.11-5.98.11s-4.32-.04-5.99-.11c-.61-.02-.92-.34-.92-.96l.09-195.3c0-.46-.35-.84-.81-.89-3.69-.35-6.05-.52-7.1-.51-14.67.11-25.93.12-33.76.03-.68-.01-1.22-.56-1.21-1.23v-10.8c0-.27.22-.48.49-.48,16.45-.06,32.87-.09,49.26-.08Z"/>
  <path class="cls-2" d="M1415.32,907.76c-.13-87.09-.18-138.8-.13-155.12,0-.33.27-.6.6-.6h11.45c.62,0,.93.3.93.91.01,41.49,0,94.43-.06,158.81-.02,21.12-7.49,44.77-30.7,50.58-13.32,3.34-29.34,2.28-40.5-5.72-12.69-9.09-17.3-24.11-18.36-39.33-.15-2.03-.22-7.86-.23-17.49-.01-92.44-.02-141.55-.03-147.32,0-.25.21-.45.46-.45h12.53c.46,0,.84.38.84.84,0,6.66-.02,59.22-.04,157.67,0,10.48,1.43,21.2,7.53,29.88,6.81,9.71,18.83,12.21,30.48,10.53,21.86-3.13,25.25-25.35,25.23-43.19Z"/>
  <path class="cls-2" d="M1512.37,862.26c2.39.19,4.84.89,7.35,2.1,15.52,7.41,21.04,21.88,21.07,38.19.05,19.64.08,32.47.1,38.49.03,7.61,1.56,14.55,4.61,20.82.09.19.02.42-.17.51-.06.03-.12.04-.18.04-4.8-.09-8.46-.08-10.99.01-1.91.07-3.16-.65-3.73-2.15-2.96-7.75-3.44-15.18-3.32-23.48.01-.82,0-10.41-.03-28.76-.02-15.26-2.01-29.49-16.67-35.92-5.01-2.2-10.59-3.4-16.74-3.59-8.75-.27-17.7-.31-26.87-.1-.58.02-1.04.49-1.04,1.07v91.99c0,.49-.4.89-.89.89h-11.97c-.69,0-1.03-.34-1.03-1.03v-208.52c0-.41.33-.74.74-.75,15.28-.17,30.89-.13,46.84.1,26.23.39,40.06,16.57,41.16,41.86.21,4.81.28,12.47.21,22.98-.11,17-3.82,32.18-19.56,40.55-2.23,1.18-6.43,2.36-9.07,3.8-.93.51-.87.81.18.9ZM1465.69,765.87l.16,88.28c0,.76.61,1.37,1.37,1.37l29.98-.05c16.54-.03,29.93-13.61,29.9-30.34h0s-.06-30.44-.06-30.44c-.03-16.73-13.46-30.27-30-30.24l-29.98.05c-.76,0-1.37.61-1.37,1.37Z"/>
  <path class="cls-1" d="M410.82,1108.23c-.31.12-.47.46-.35.77.02.05.05.1.08.15,8.97,11.87,16.98,28.12,15.39,43.17-1.68,15.95-15.06,24.6-29.19,29.45-.41.14-.62.58-.48.98,0,.01,0,.02.01.04,3.74,9.17,5.58,20.02,1.35,29.23-1.37,2.98-3.69,6.91-6.96,11.8-5.61,8.37-7.03,17.74-4.26,28.11.58,2.16,1.26,5,2.04,8.53,2.91,13.2-5.35,23.13-15.13,30.52-10.67,8.07-22.85,15.39-36.54,21.96-1.95.93-4.44,1.69-7.47,2.28-3.72.72-10.29,1.49-19.72,2.31-24.94,2.17-39.19,3.57-42.75,4.19-17.85,3.11-29.86,4.88-36.02,5.3-17.03,1.16-32.6,3.42-46.7,6.79-10.17,2.43-22.82,6.61-37.94,12.55-21.6,8.47-43.39,18.6-65.36,30.38-1.12.6-3.04.97-4.5.97-21.75.03-46.52.05-74.3.05-.5,0-.75-.25-.75-.75v-173.53c0-.44.24-.85.64-1.06,11.05-5.64,27.29-13.6,48.71-23.89,21.11-10.14,41.17-21.83,55.85-38.89,7.27-8.42,13.69-17.81,20.32-28.21,14.27-22.41,29.23-45.2,44.86-68.37,1.97-2.92,5.15-8.44,9.54-16.55,1.02-1.89,2.28-3.6,3.77-5.12,5.98-6.09,11.12-12.99,18.84-23.15,4.81-6.35,8.3-11.98,10.47-16.9,2.23-5.04,5.8-8,8.67-12.5,9.05-14.15,16.88-29.06,23.49-44.75,2.61-6.21,3.55-12.88,2.81-20.03-1.27-12.17-4.49-23.07-7.32-35.35-1.38-6-3.66-19.83.84-23.46,16.22-13.08,31.7-.15,40.86,13.71,10.55,15.97,17.65,33.94,21.32,53.92,5.08,27.63-8.25,52.71-19.22,77.02-6.27,13.87-9.62,28.07-7.06,42.66.12.72.7,1.29,1.42,1.4,12,1.99,23.32,3.33,35.69,4.02,23.73,1.33,47.82,1.91,72.28,1.74,62.39-.42,100.72-1.13,154.02.01,19.53.41,38.77,1.46,57.72,3.15,17.22,1.53,58.84,5.01,56.14,31.21-1.07,10.45-6.67,17.38-16.8,20.79-12.41,4.17-27.71,3.83-40.06,2.93-.79-.06-7.43-.64-19.93-1.74-.57-.05-1.92,0-4.07.16-70.92,5.09-125.08,9-162.49,11.71-.82.06-1.41.16-1.76.29Z"/>
</svg>